<?xml version="1.0" encoding="utf-8"?>
<!-- Generator: Adobe Illustrator 16.0.0, SVG Export Plug-In . SVG Version: 6.00 Build 0)  -->
<!DOCTYPE svg PUBLIC "-//W3C//DTD SVG 1.1//EN" "http://www.w3.org/Graphics/SVG/1.1/DTD/svg11.dtd">
<svg version="1.1" xmlns="http://www.w3.org/2000/svg" xmlns:xlink="http://www.w3.org/1999/xlink" x="0px" y="0px" width="70px"
	 height="47px" viewBox="0 0 70 47" enable-background="new 0 0 70 47" xml:space="preserve">
<g id="Layer_1">
	<g>
		<rect fill-rule="evenodd" clip-rule="evenodd" fill="#F9F9FA" width="70" height="47"/>
		<path fill-rule="evenodd" clip-rule="evenodd" fill="#EC5565" d="M39,28c-0.008,5.968,0,12.861,0,19c-2.593,0-5.205,0-8,0
			c0-6.045,0-12.455,0-19c-10.611,0-20.729,0-31,0c0-1.333,0-4,0-4v-5c0,0,58.639,0,70,0c0,3.092,0,6.047,0,9
			C59.841,28,48.908,28,39,28"/>
		<path fill="#4B89DB" d="M31,24c-10.483,0-20.798-0.003-31-0.003C0,15.998,0,7.999,0,0c10.296,0,20.704,0,31,0"/>
		<rect x="41" y="30" fill-rule="evenodd" clip-rule="evenodd" fill="#4B5CAA" width="29" height="17"/>
		<rect y="30" fill-rule="evenodd" clip-rule="evenodd" fill="#4B5CAA" width="29" height="17"/>
		<path fill-rule="evenodd" clip-rule="evenodd" fill="#EC5565" d="M70,0v10c0,0-25.972,0-39,0c0-3.277,0-6.723,0-10
			C42.555,0,70,0,70,0z"/>
	</g>
</g>
<g id="Layer_2">
	<polygon fill-rule="evenodd" clip-rule="evenodd" fill="#F9F9FA" points="0,42 22,30 29,30 29,33 4,47 0,47 	"/>
	<polygon fill-rule="evenodd" clip-rule="evenodd" fill="#F9F9FA" points="70,42 48,30 41,30 41,33 66,47 70,47 	"/>
	<polygon fill-rule="evenodd" clip-rule="evenodd" fill="#EC5565" points="0,45 27,30 29,30 29,32 2,47 0,47 	"/>
	<polyline fill-rule="evenodd" clip-rule="evenodd" fill="#EC5565" points="70,43 46,30 44,30 42,30 70,46 	"/>
</g>
<g id="Layer_3">
	<polygon fill-rule="evenodd" clip-rule="evenodd" fill="#F9F9FA" points="3,2 3.261,2.763 4,2.763 3.415,3.235 3.662,4 
		3.013,3.527 2.363,4 2.611,3.235 2,2.763 2.765,2.763 	"/>
	<polygon fill-rule="evenodd" clip-rule="evenodd" fill="#F9F9FA" points="5.5,4.5 5.761,5.263 6.5,5.263 5.915,5.735 6.162,6.5 
		5.513,6.027 4.863,6.5 5.111,5.735 4.5,5.263 5.265,5.263 	"/>
	<polygon fill-rule="evenodd" clip-rule="evenodd" fill="#F9F9FA" points="5.5,18 5.761,18.763 6.5,18.763 5.915,19.235 6.162,20 
		5.513,19.527 4.863,20 5.111,19.235 4.5,18.763 5.265,18.763 	"/>
	<polygon fill-rule="evenodd" clip-rule="evenodd" fill="#F9F9FA" points="5.5,13.5 5.761,14.263 6.5,14.263 5.915,14.735 
		6.162,15.5 5.513,15.027 4.863,15.5 5.111,14.735 4.5,14.263 5.265,14.263 	"/>
	<polygon fill-rule="evenodd" clip-rule="evenodd" fill="#F9F9FA" points="5.5,9 5.761,9.763 6.5,9.763 5.915,10.235 6.162,11 
		5.513,10.527 4.863,11 5.111,10.235 4.5,9.763 5.265,9.763 	"/>
	<polygon fill-rule="evenodd" clip-rule="evenodd" fill="#F9F9FA" points="10.5,4.5 10.761,5.263 11.5,5.263 10.915,5.735 
		11.162,6.5 10.513,6.027 9.863,6.5 10.111,5.735 9.5,5.263 10.265,5.263 	"/>
	<polygon fill-rule="evenodd" clip-rule="evenodd" fill="#F9F9FA" points="10.5,18 10.761,18.763 11.5,18.763 10.915,19.235 
		11.162,20 10.513,19.527 9.863,20 10.111,19.235 9.5,18.763 10.265,18.763 	"/>
	<polygon fill-rule="evenodd" clip-rule="evenodd" fill="#F9F9FA" points="10.5,13.5 10.761,14.263 11.5,14.263 10.915,14.735 
		11.162,15.5 10.513,15.027 9.863,15.5 10.111,14.735 9.5,14.263 10.265,14.263 	"/>
	<polygon fill-rule="evenodd" clip-rule="evenodd" fill="#F9F9FA" points="10.5,9 10.761,9.763 11.5,9.763 10.915,10.235 11.162,11 
		10.513,10.527 9.863,11 10.111,10.235 9.5,9.763 10.265,9.763 	"/>
	<polygon fill-rule="evenodd" clip-rule="evenodd" fill="#F9F9FA" points="15.5,4.5 15.761,5.263 16.5,5.263 15.915,5.735 
		16.162,6.5 15.513,6.027 14.863,6.5 15.111,5.735 14.5,5.263 15.265,5.263 	"/>
	<polygon fill-rule="evenodd" clip-rule="evenodd" fill="#F9F9FA" points="15.5,18 15.761,18.763 16.5,18.763 15.915,19.235 
		16.162,20 15.513,19.527 14.863,20 15.111,19.235 14.5,18.763 15.265,18.763 	"/>
	<polygon fill-rule="evenodd" clip-rule="evenodd" fill="#F9F9FA" points="15.5,13.5 15.761,14.263 16.5,14.263 15.915,14.735 
		16.162,15.5 15.513,15.027 14.863,15.5 15.111,14.735 14.5,14.263 15.265,14.263 	"/>
	<polygon fill-rule="evenodd" clip-rule="evenodd" fill="#F9F9FA" points="15.5,9 15.761,9.763 16.5,9.763 15.915,10.235 16.162,11 
		15.513,10.527 14.863,11 15.111,10.235 14.5,9.763 15.265,9.763 	"/>
	<polygon fill-rule="evenodd" clip-rule="evenodd" fill="#F9F9FA" points="20.5,4.5 20.761,5.263 21.5,5.263 20.915,5.735 
		21.162,6.5 20.513,6.027 19.863,6.5 20.111,5.735 19.5,5.263 20.265,5.263 	"/>
	<polygon fill-rule="evenodd" clip-rule="evenodd" fill="#F9F9FA" points="20.5,18 20.761,18.763 21.5,18.763 20.915,19.235 
		21.162,20 20.513,19.527 19.863,20 20.111,19.235 19.5,18.763 20.265,18.763 	"/>
	<polygon fill-rule="evenodd" clip-rule="evenodd" fill="#F9F9FA" points="20.5,13.5 20.761,14.263 21.5,14.263 20.915,14.735 
		21.162,15.5 20.513,15.027 19.863,15.5 20.111,14.735 19.5,14.263 20.265,14.263 	"/>
	<polygon fill-rule="evenodd" clip-rule="evenodd" fill="#F9F9FA" points="20.5,9 20.761,9.763 21.5,9.763 20.915,10.235 21.162,11 
		20.513,10.527 19.863,11 20.111,10.235 19.5,9.763 20.265,9.763 	"/>
	<polygon fill-rule="evenodd" clip-rule="evenodd" fill="#F9F9FA" points="25.5,4.5 25.761,5.263 26.5,5.263 25.915,5.735 
		26.162,6.5 25.513,6.027 24.863,6.5 25.111,5.735 24.5,5.263 25.265,5.263 	"/>
	<polygon fill-rule="evenodd" clip-rule="evenodd" fill="#F9F9FA" points="25.5,18 25.761,18.763 26.5,18.763 25.915,19.235 
		26.162,20 25.513,19.527 24.863,20 25.111,19.235 24.5,18.763 25.265,18.763 	"/>
	<polygon fill-rule="evenodd" clip-rule="evenodd" fill="#F9F9FA" points="25.5,13.5 25.761,14.263 26.5,14.263 25.915,14.735 
		26.162,15.5 25.513,15.027 24.863,15.5 25.111,14.735 24.5,14.263 25.265,14.263 	"/>
	<polygon fill-rule="evenodd" clip-rule="evenodd" fill="#F9F9FA" points="25.5,9 25.761,9.763 26.5,9.763 25.915,10.235 26.162,11 
		25.513,10.527 24.863,11 25.111,10.235 24.5,9.763 25.265,9.763 	"/>
	<polygon fill-rule="evenodd" clip-rule="evenodd" fill="#F9F9FA" points="3,6.5 3.261,7.263 4,7.263 3.415,7.735 3.662,8.5 
		3.013,8.027 2.363,8.5 2.611,7.735 2,7.263 2.765,7.263 	"/>
	<polygon fill-rule="evenodd" clip-rule="evenodd" fill="#F9F9FA" points="3,11 3.261,11.763 4,11.763 3.415,12.235 3.662,13 
		3.013,12.527 2.363,13 2.611,12.235 2,11.763 2.765,11.763 	"/>
	<polygon fill-rule="evenodd" clip-rule="evenodd" fill="#F9F9FA" points="3,15.5 3.261,16.263 4,16.263 3.415,16.735 3.662,17.5 
		3.013,17.027 2.363,17.5 2.611,16.735 2,16.263 2.765,16.263 	"/>
	<polygon fill-rule="evenodd" clip-rule="evenodd" fill="#F9F9FA" points="3,20 3.261,20.763 4,20.763 3.415,21.235 3.662,22 
		3.013,21.527 2.363,22 2.611,21.235 2,20.763 2.765,20.763 	"/>
	<polygon fill-rule="evenodd" clip-rule="evenodd" fill="#F9F9FA" points="8,2 8.261,2.763 9,2.763 8.415,3.235 8.662,4 
		8.013,3.527 7.363,4 7.611,3.235 7,2.763 7.765,2.763 	"/>
	<polygon fill-rule="evenodd" clip-rule="evenodd" fill="#F9F9FA" points="8,6.5 8.261,7.263 9,7.263 8.415,7.735 8.662,8.5 
		8.013,8.027 7.363,8.5 7.611,7.735 7,7.263 7.765,7.263 	"/>
	<polygon fill-rule="evenodd" clip-rule="evenodd" fill="#F9F9FA" points="8,11 8.261,11.763 9,11.763 8.415,12.235 8.662,13 
		8.013,12.527 7.363,13 7.611,12.235 7,11.763 7.765,11.763 	"/>
	<polygon fill-rule="evenodd" clip-rule="evenodd" fill="#F9F9FA" points="8,15.5 8.261,16.263 9,16.263 8.415,16.735 8.662,17.5 
		8.013,17.027 7.363,17.5 7.611,16.735 7,16.263 7.765,16.263 	"/>
	<polygon fill-rule="evenodd" clip-rule="evenodd" fill="#F9F9FA" points="8,20 8.261,20.763 9,20.763 8.415,21.235 8.662,22 
		8.013,21.527 7.363,22 7.611,21.235 7,20.763 7.765,20.763 	"/>
	<polygon fill-rule="evenodd" clip-rule="evenodd" fill="#F9F9FA" points="13,2 13.261,2.763 14,2.763 13.415,3.235 13.662,4 
		13.013,3.527 12.363,4 12.611,3.235 12,2.763 12.765,2.763 	"/>
	<polygon fill-rule="evenodd" clip-rule="evenodd" fill="#F9F9FA" points="13,6.5 13.261,7.263 14,7.263 13.415,7.735 13.662,8.5 
		13.013,8.027 12.363,8.5 12.611,7.735 12,7.263 12.765,7.263 	"/>
	<polygon fill-rule="evenodd" clip-rule="evenodd" fill="#F9F9FA" points="13,11 13.261,11.763 14,11.763 13.415,12.235 13.662,13 
		13.013,12.527 12.363,13 12.611,12.235 12,11.763 12.765,11.763 	"/>
	<polygon fill-rule="evenodd" clip-rule="evenodd" fill="#F9F9FA" points="13,15.5 13.261,16.263 14,16.263 13.415,16.735 
		13.662,17.5 13.013,17.027 12.363,17.5 12.611,16.735 12,16.263 12.765,16.263 	"/>
	<polygon fill-rule="evenodd" clip-rule="evenodd" fill="#F9F9FA" points="13,20 13.261,20.763 14,20.763 13.415,21.235 13.662,22 
		13.013,21.527 12.363,22 12.611,21.235 12,20.763 12.765,20.763 	"/>
	<polygon fill-rule="evenodd" clip-rule="evenodd" fill="#F9F9FA" points="18,2 18.261,2.763 19,2.763 18.415,3.235 18.662,4 
		18.013,3.527 17.363,4 17.611,3.235 17,2.763 17.765,2.763 	"/>
	<polygon fill-rule="evenodd" clip-rule="evenodd" fill="#F9F9FA" points="18,6.5 18.261,7.263 19,7.263 18.415,7.735 18.662,8.5 
		18.013,8.027 17.363,8.5 17.611,7.735 17,7.263 17.765,7.263 	"/>
	<polygon fill-rule="evenodd" clip-rule="evenodd" fill="#F9F9FA" points="18,11 18.261,11.763 19,11.763 18.415,12.235 18.662,13 
		18.013,12.527 17.363,13 17.611,12.235 17,11.763 17.765,11.763 	"/>
	<polygon fill-rule="evenodd" clip-rule="evenodd" fill="#F9F9FA" points="18,15.5 18.261,16.263 19,16.263 18.415,16.735 
		18.662,17.5 18.013,17.027 17.363,17.5 17.611,16.735 17,16.263 17.765,16.263 	"/>
	<polygon fill-rule="evenodd" clip-rule="evenodd" fill="#F9F9FA" points="18,20 18.261,20.763 19,20.763 18.415,21.235 18.662,22 
		18.013,21.527 17.363,22 17.611,21.235 17,20.763 17.765,20.763 	"/>
	<polygon fill-rule="evenodd" clip-rule="evenodd" fill="#F9F9FA" points="23,2 23.261,2.763 24,2.763 23.415,3.235 23.662,4 
		23.013,3.527 22.363,4 22.611,3.235 22,2.763 22.765,2.763 	"/>
	<polygon fill-rule="evenodd" clip-rule="evenodd" fill="#F9F9FA" points="23,6.5 23.261,7.263 24,7.263 23.415,7.735 23.662,8.5 
		23.013,8.027 22.363,8.5 22.611,7.735 22,7.263 22.765,7.263 	"/>
	<polygon fill-rule="evenodd" clip-rule="evenodd" fill="#F9F9FA" points="23,11 23.261,11.763 24,11.763 23.415,12.235 23.662,13 
		23.013,12.527 22.363,13 22.611,12.235 22,11.763 22.765,11.763 	"/>
	<polygon fill-rule="evenodd" clip-rule="evenodd" fill="#F9F9FA" points="23,15.5 23.261,16.263 24,16.263 23.415,16.735 
		23.662,17.5 23.013,17.027 22.363,17.5 22.611,16.735 22,16.263 22.765,16.263 	"/>
	<polygon fill-rule="evenodd" clip-rule="evenodd" fill="#F9F9FA" points="23,20 23.261,20.763 24,20.763 23.415,21.235 23.662,22 
		23.013,21.527 22.363,22 22.611,21.235 22,20.763 22.765,20.763 	"/>
	<polygon fill-rule="evenodd" clip-rule="evenodd" fill="#F9F9FA" points="28,2 28.261,2.763 29,2.763 28.415,3.235 28.662,4 
		28.013,3.527 27.363,4 27.611,3.235 27,2.763 27.765,2.763 	"/>
	<polygon fill-rule="evenodd" clip-rule="evenodd" fill="#F9F9FA" points="28,6.5 28.261,7.263 29,7.263 28.415,7.735 28.662,8.5 
		28.013,8.027 27.363,8.5 27.611,7.735 27,7.263 27.765,7.263 	"/>
	<polygon fill-rule="evenodd" clip-rule="evenodd" fill="#F9F9FA" points="28,11 28.261,11.763 29,11.763 28.415,12.235 28.662,13 
		28.013,12.527 27.363,13 27.611,12.235 27,11.763 27.765,11.763 	"/>
	<polygon fill-rule="evenodd" clip-rule="evenodd" fill="#F9F9FA" points="28,15.5 28.261,16.263 29,16.263 28.415,16.735 
		28.662,17.5 28.013,17.027 27.363,17.5 27.611,16.735 27,16.263 27.765,16.263 	"/>
	<polygon fill-rule="evenodd" clip-rule="evenodd" fill="#F9F9FA" points="28,20 28.261,20.763 29,20.763 28.415,21.235 28.662,22 
		28.013,21.527 27.363,22 27.611,21.235 27,20.763 27.765,20.763 	"/>
</g>
</svg>
