<?xml version="1.0" encoding="utf-8"?>
<!-- Generator: Adobe Illustrator 16.0.0, SVG Export Plug-In . SVG Version: 6.00 Build 0)  -->
<!DOCTYPE svg PUBLIC "-//W3C//DTD SVG 1.1//EN" "http://www.w3.org/Graphics/SVG/1.1/DTD/svg11.dtd">
<svg version="1.1" id="Layer_1" xmlns="http://www.w3.org/2000/svg" xmlns:xlink="http://www.w3.org/1999/xlink" x="0px" y="0px"
	 width="70px" height="47px" viewBox="367 376 70 47" enable-background="new 367 376 70 47" xml:space="preserve">
<g>
	<path fill="#EC5666" d="M413,376c8,0,16,0,24,0c0,15.667,0,31.333,0,47c-8,0-16,0-24,0C413,407.333,413,391.667,413,376z"/>
	<path fill="#4859A9" d="M390,423c-7.667,0-15.333,0-23,0c0-15.667,0-31.333,0-47c7.667,0,15.333,0,23,0
		C390,391.667,390,407.333,390,423z"/>
	<path fill="#F4F6F9" d="M390,423c0-15.667,0-31.333,0-47c7.667,0,15.334,0,23,0c0,15.667,0,31.333,0,47
		C405.334,423,397.667,423,390,423z"/>
</g>
</svg>
