<?xml version="1.0" encoding="utf-8"?>
<!-- Generator: Adobe Illustrator 16.0.0, SVG Export Plug-In . SVG Version: 6.00 Build 0)  -->
<!DOCTYPE svg PUBLIC "-//W3C//DTD SVG 1.1//EN" "http://www.w3.org/Graphics/SVG/1.1/DTD/svg11.dtd">
<svg version="1.1" id="Layer_1" xmlns="http://www.w3.org/2000/svg" xmlns:xlink="http://www.w3.org/1999/xlink" x="0px" y="0px"
	 width="70px" height="47px" viewBox="0 0 70 47" enable-background="new 0 0 70 47" xml:space="preserve">
<g>
	<path fill="#EC5666" d="M0,15.5c23.333,0,46.667,0,70,0c0,5.333,0,10.666,0,16c-23.333,0-46.667,0-70,0C0,26.166,0,20.833,0,15.5z"
		/>
	<path fill="#434A54" d="M70,15.5c-23.334,0-46.666,0-70,0C0,10.333,0,5.167,0,0c23.334,0,46.666,0,70,0C70,5.167,70,10.333,70,15.5
		z"/>
	<path fill="#F6BB42" d="M0,47c0-5.166,0-10.333,0-15.5c23.334,0,46.669,0,70,0c0,5.167,0,10.334,0,15.5C46.669,47,23.334,47,0,47z"
		/>
</g>
</svg>
