<?xml version="1.0" encoding="utf-8"?>
<!-- Generator: Adobe Illustrator 28.0.0, SVG Export Plug-In . SVG Version: 6.00 Build 0)  -->
<svg version="1.1" id="Calque_1" xmlns="http://www.w3.org/2000/svg" xmlns:xlink="http://www.w3.org/1999/xlink" x="0px" y="0px"
	 viewBox="0 0 48 48" style="enable-background:new 0 0 48 48;" xml:space="preserve">
<style type="text/css">
	.st0{fill:url(#SVGID_1_);}
	.st1{fill:#FFFFFF;}
	.st2{fill:#FF5D01;}
</style>
<linearGradient id="SVGID_1_" gradientUnits="userSpaceOnUse" x1="6" y1="24" x2="42" y2="24">
	<stop  offset="0" style="stop-color:#000014"/>
	<stop  offset="1" style="stop-color:#150426"/>
</linearGradient>
<path class="st0" d="M11,6c-2.8,0-5,2.2-5,5v26c0,2.8,2.2,5,5,5h26c2.8,0,5-2.2,5-5V11c0-2.8-2.2-5-5-5H11z"/>
<path class="st1" d="M28.3,10.1c0.2,0.3,0.4,0.7,0.6,1.5l5.3,17.5c-2-1-4.1-1.8-6.4-2.2l-3.5-11.7c-0.1-0.2-0.3-0.4-0.6-0.3
	c-0.1,0-0.3,0.2-0.3,0.3l-3.4,11.7c-2.2,0.4-4.4,1.1-6.4,2.2l5.4-17.5c0.2-0.8,0.4-1.2,0.6-1.5c0.2-0.3,0.5-0.5,0.8-0.6
	c0.4-0.1,0.8-0.1,1.6-0.1h3.8c0.8,0,1.3,0,1.6,0.1C27.8,9.6,28.1,9.8,28.3,10.1L28.3,10.1z"/>
<path class="st2" d="M29,29.9c-0.9,0.8-2.6,1.3-4.6,1.3c-2.5,0-4.6-0.8-5.1-1.8C19,30,19,30.7,19,31.1c0,0-0.1,2.1,1.4,3.6
	c0-0.8,0.6-1.4,1.4-1.4c0,0,0,0,0,0c1.3,0,1.3,1.2,1.3,2.1v0.1c0,1.4,0.9,2.6,2.1,3.1c-0.2-0.4-0.3-0.8-0.3-1.3
	c0-1.4,0.8-1.9,1.7-2.4c0.7-0.5,1.6-1,2.1-2c0.3-0.6,0.5-1.2,0.5-1.8C29.1,30.7,29.1,30.3,29,29.9z"/>
</svg>
