<svg version="1.1" xmlns="http://www.w3.org/2000/svg" viewBox="0 0 48 48" enable-background="new 0 0 48 48">
<path fill="#42A5F5" d="M42,37c0,2.762-2.238,5-5,5H11c-2.762,0-5-2.238-5-5V11c0-2.762,2.238-5,5-5h26c2.762,0,5,2.238,5,5V37z"/>
<g>
	<path fill="#FFFFFF" d="M34.333,28.66c-0.564,1.223-0.836,1.77-1.561,2.85c-1.016,1.51-2.445,3.394-4.218,3.406
		c-1.574,0.012-1.98-1.005-4.116-0.989c-2.136,0.012-2.581,1.007-4.159,0.99c-1.77-0.016-3.125-1.712-4.14-3.218
		c-2.839-4.226-3.138-9.179-1.385-11.814c1.241-1.868,3.206-2.966,5.049-2.966c1.877,0,3.058,1.01,4.611,1.01
		c1.508,0,2.424-1.012,4.596-1.012c1.643,0,3.38,0.875,4.621,2.384C29.571,21.476,30.232,27.143,34.333,28.66z"/>
	<path fill="#FFFFFF" d="M27.641,14.964c0.846-1.051,1.487-2.535,1.255-4.047c-1.379,0.092-2.993,0.945-3.937,2.05
		c-0.855,1.006-1.562,2.501-1.288,3.948C25.178,16.961,26.737,16.093,27.641,14.964z"/>
</g>
</svg>
