<svg version="1.1" xmlns="http://www.w3.org/2000/svg" viewBox="0 0 48 48" enable-background="new 0 0 48 48">
<path fill="#4DB6AC" d="M42,37c0,2.762-2.238,5-5,5H11c-2.762,0-5-2.238-5-5V11c0-2.762,2.238-5,5-5h26c2.762,0,5,2.238,5,5V37z"/>
<g>
	<path fill="#FFFFFF" d="M15.75,29h-2v-4.3h-3V29h-2V19h2v4h3v-4h2V29z M22.75,20.7h-2V29h-2v-8.3h-1.9V19h5.9V20.7z M26.35,19
		l1.9,7.2l1.9-7.2h2.6v10h-2v-2.7l0.2-4.2l-2,6.9h-1.4l-2-6.9l0.2,4.2V29h-2V19H26.35z M35.75,27.3h3.5V29h-5.5V19h2V27.3z" data-hover="fond"/>
</g>
</svg>
