<?xml version="1.0" encoding="utf-8"?>
<!-- Generator: Adobe Illustrator 24.2.3, SVG Export Plug-In . SVG Version: 6.00 Build 0)  -->
<svg version="1.1" id="Calque_1" xmlns="http://www.w3.org/2000/svg" xmlns:xlink="http://www.w3.org/1999/xlink" x="0px" y="0px"
	 viewBox="0 0 48 48" style="enable-background:new 0 0 48 48;" xml:space="preserve">
<style type="text/css">
	.st0{fill:#E87912;}
	.st1{fill:#216287;}
	.st2{fill:#FFFFFF;}
</style>
<g>
	<path class="st0" d="M14.3,28.7c1.7,0,3.3-0.4,4.7-1.2c1.9-1,3.4-2.6,4.3-4.5l0.7-1.4c1-1.9,2.4-3.6,4.3-4.5c1.4-0.7,3-1.2,4.7-1.2
		c3.8,0,7.1,2.1,8.9,5.2V11c0-2.8-2.2-5-5-5H11c-2.8,0-5,2.2-5,5v13.5C7.9,27.1,10.9,28.7,14.3,28.7z"/>
	<path class="st1" d="M42,37v-7.3v-8.6c-1.8-3.1-5.1-5.2-8.9-5.2c-1.7,0-3.3,0.4-4.7,1.2c-1.9,1-3.4,2.6-4.3,4.5l-0.7,1.4
		c-1,1.9-2.4,3.5-4.3,4.5c-1.4,0.7-3,1.2-4.7,1.2c-3.4,0-6.5-1.7-8.3-4.3v5.1V37c0,2.8,2.2,5,5,5h26C39.8,42,42,39.8,42,37z"/>
</g>
<g>
	<path class="st2" d="M35.7,37.3c-1.2-1.4-3.1-2.8-4.3-4.8c-0.2-0.3-0.1-0.6,0.2-0.8c1.6-0.8,1.8-0.7,3.4-1.4
		c-1.5-1.5-3.1-2.1-5.7-2.7c-0.5-0.1-0.8-0.5-0.9-1c-0.1-0.5-0.4-1.3-0.7-2c-2.2-4.4-4.9-10.2-10.4-10.6c-0.4,0-0.7-0.2-1-0.4
		c-0.7-0.7-1.7-1.5-2.6-1.6c-0.2,0-0.1,0-0.2,0.1c-0.4,0.4-0.3,0.4,0,1c0.3,0.6,1,1.2,1.6,1.9c0.6,0.8,0.2,2,0.6,2.9
		c0.2,0.7,0.5,1.4,0.9,1.9c0.2,0.2,0.3,0.6,0.2,0.8c-0.4,2.1-0.8,4.4-0.3,6.5c0,0.2,0.2,0.3,0.4,0.2c0.1,0,0,0,0.2-0.4
		c0.2-0.5,2-3.8,2.5-2.8c0.7,2.4,1.7,7,3.9,8.4c0.1,0,0,0.2-0.1,0.1c-2.2-1.2-4-4.1-4.6-6.1c-0.4,0-0.8,0.4-1,0.8
		c-0.3,1.1-1.9,1.2-2.2,0c-0.1-0.5-0.2-0.9-0.3-1.4c-0.2-1.7-0.1-4.2,0.3-5.5c-1.1-1.2-1.7-3.4-1.5-4.6c-0.6-0.6-1.3-1.3-1.8-2.1
		c-0.9-1.2-0.1-3.3,1.5-3.2c1.4,0.1,2.6,1.1,3.6,2c1.1-0.1,3.3,0.7,4.6,1.5c2.8,1.8,4.3,5,5.9,7.8c0.6,1.3,1.8,3.5,1.7,4.5
		c2.9,0.9,6.1,2,7.7,4.7c0,0.1,0,0.1-0.1,0.1l-4.5,1.4l3,4.6C35.9,37.3,35.8,37.4,35.7,37.3L35.7,37.3z"/>
	<path class="st2" d="M18.2,16l1.3,1.8C19.5,17.8,20.9,15.8,18.2,16z"/>
</g>
</svg>
