<svg version="1.1" xmlns="http://www.w3.org/2000/svg" viewBox="0 0 48 48" enable-background="new 0 0 48 48">
	<path fill="#FFFFFF" d="M42,37c0,2.762-2.238,5-5,5H11c-2.762,0-5-2.238-5-5V11c0-2.762,2.238-5,5-5h26c2.762,0,5,2.238,5,5V37z"/>
<g>
	<path fill="#F76636" d="M6,11v26c0,2.762,2.238,5,5,5h26c2.762,0,5-2.238,5-5V11c0-2.762-2.238-5-5-5h-4.286
		c0.03,2.389,0.078,4.694,0.067,6.995c-0.003,0.633,0.332,0.906,0.762,1.26c1.589,1.305,1.989,3.805,0.501,5.107
		c-1.315,1.158-1.288,2.421-1.268,3.846c0.016,1.155,0.048,2.314-0.012,3.466c-0.046,0.928,0.194,1.571,0.943,2.229
		c1.797,1.576,1.536,4.513-0.385,5.764c-1.729,1.132-4.035,0.773-5.175-0.806c-1.199-1.649-0.93-3.823,0.682-5.181
		c0.483-0.408,0.925-0.714,0.904-1.488c-0.055-1.971,0.009-3.945,0.027-6.324c-3.05,3.052-5.784,5.815-8.553,8.538
		c-0.578,0.57-0.883,1.076-0.814,1.979c0.173,2.261-1.604,4.005-3.815,3.943c-2.081-0.061-3.725-1.818-3.632-3.886
		c0.102-2.243,1.905-3.812,4.2-3.536c0.75,0.093,1.236-0.038,1.767-0.583c2.627-2.684,5.286-5.339,7.97-7.969
		c0.535-0.525,0.687-1.003,0.587-1.762c-0.198-1.483,0.294-2.757,1.629-3.587c0.339-0.213,0.634-0.402,0.632-0.87
		C29.721,10.78,29.725,8.421,29.723,6H11C8.238,6,6,8.238,6,11z"/>
</g>
</svg>
