<svg version="1.1" xmlns="http://www.w3.org/2000/svg" viewBox="0 0 48 48" enable-background="new 0 0 48 48">
	<path fill="#FFFFFF" d="M42,37c0,2.762-2.238,5-5,5H11c-2.762,0-5-2.238-5-5V11c0-2.762,2.238-5,5-5h26c2.762,0,5,2.238,5,5V37z"/>
	<path fill="#563D7C" d="M19.624,21.905v-5.146h4.531c0.429,0,0.847,0.037,1.248,0.108s0.754,0.2,1.064,0.385
		c0.307,0.185,0.555,0.441,0.738,0.77c0.186,0.329,0.277,0.75,0.277,1.263c0,0.925-0.277,1.592-0.832,2.004
		c-0.553,0.41-1.262,0.616-2.127,0.616H19.624L19.624,21.905z M14.788,13v22h10.66c0.986,0,1.947-0.125,2.883-0.369
		c0.934-0.247,1.768-0.628,2.496-1.139c0.729-0.516,1.309-1.178,1.74-1.99c0.432-0.812,0.646-1.77,0.646-2.881
		c0-1.377-0.334-2.55-1.002-3.527c-0.666-0.976-1.68-1.659-3.033-2.049c0.984-0.473,1.73-1.078,2.234-1.817
		c0.502-0.74,0.754-1.664,0.754-2.774c0-1.027-0.17-1.889-0.51-2.587c-0.338-0.7-0.816-1.259-1.43-1.68
		c-0.619-0.421-1.357-0.724-2.223-0.909C27.143,13.092,26.188,13,25.141,13H14.788L14.788,13z M19.624,31.24v-6.037h5.271
		c1.047,0,1.891,0.24,2.525,0.722c0.637,0.483,0.957,1.289,0.957,2.419c0,0.576-0.098,1.049-0.295,1.418
		c-0.193,0.37-0.455,0.662-0.783,0.877c-0.33,0.217-0.709,0.369-1.143,0.464c-0.43,0.093-0.883,0.138-1.355,0.138H19.624
		L19.624,31.24z" data-hover="fond" />
</svg>
