<?xml version="1.0" encoding="utf-8"?>
<!-- Generator: Adobe Illustrator 24.2.3, SVG Export Plug-In . SVG Version: 6.00 Build 0)  -->
<svg version="1.1" id="Calque_1" xmlns="http://www.w3.org/2000/svg" xmlns:xlink="http://www.w3.org/1999/xlink" x="0px" y="0px"
	 viewBox="0 0 48 48" style="enable-background:new 0 0 48 48;" xml:space="preserve">
<style type="text/css">
	.st0{fill:#FDD7AD;}
	.st1{fill-rule:evenodd;clip-rule:evenodd;fill:#FF6D00;}
</style>
<path class="st0" d="M42,37c0,2.8-2.2,5-5,5H11c-2.8,0-5-2.2-5-5V11c0-2.8,2.2-5,5-5h26c2.8,0,5,2.2,5,5V37z"/>
<g>
	<path class="st1" d="M32.7,17.3L26,8.4c-1.1,1.5-1.3,3.4-0.6,5L32.7,17.3z"/>
	<path class="st1" d="M22.2,27.9c-0.9,0-1.6,0.8-1.7,1.7c0,0.9,0.7,1.6,1.6,1.6c0.9,0,1.7-0.7,1.7-1.6C23.8,28.6,23,27.9,22.2,27.9z
		"/>
	<path class="st1" d="M37.3,20.6L33,18.3c0,0-0.1,0-0.1-0.1L32.5,18L17.2,9.7c-0.9,2.5,0.7,5.2,3,6.6c1.5,0.8,5.5,1.2,7.7,1.7
		c0.4,0.1,0.8,0.1,1.2,0.3c1.2,0.4,0.4,2.4-0.3,3c-0.2,0.2-0.4,0.3-0.6,0.5c-0.7,0.4-1.3,0.5-2,0.3c0.1,0,0.3,0.1,0.4,0.1
		c-0.5-0.1-1-0.3-1.7-0.6c-1.2-0.7-2.5-1.1-3.8-1.2c-0.8,0-1.6,0.1-2.3,0.2c-0.2,0.1-0.4,0.1-0.5,0.1c-2.3,0.7-4.1,2.4-4.9,4.6
		c-0.3,0.7-0.4,1.5-0.5,2.3l0,0v0c0,1.5,0.5,2.9,1.5,4c0.3,0.3,0.6,0.7,0.9,1.1c0,0,0,0.1,0,0.1c1.4,1.6,3.4,3.4,5.1,5
		c0.7,0.6,1.3,1.2,1.7,1.7c0.2-0.3,0.4-0.6,0.5-0.9c0.4-0.9,0.3-1.9-0.3-2.7c-0.2-0.3-0.5-0.5-0.7-0.8c-0.7-0.7-1.6-1.4-2.3-2.1
		c-1-1-1.7-2.1-1.7-3.6c0-0.3,0-0.6,0.1-0.9c0-0.2,0.1-0.3,0.1-0.5c0-0.1,0.1-0.2,0.1-0.3c0.1-0.2,0.2-0.4,0.3-0.6c0,0,0,0,0-0.1
		c0.7-1.1,1.8-1.9,3.2-2.1c-0.1,0-0.2,0-0.3,0c0.3-0.1,0.6-0.1,0.9-0.1c1.2,0,2.3,0.5,3.1,1.3c0.1,0.1,0.2,0.2,0.2,0.3
		c0.1,0.1,0.2,0.2,0.3,0.3c0.4,0.7,0.7,1.4,0.7,2.3c0,0.1,0,0.2,0,0.2c0,2.3-1.8,3.7-3.3,5.2c3.6,1.2,5-1.8,5-1.8l4.2-8.6
		c1.7-0.3,3.4-0.9,5-1.9c0.2-0.1,0.4-0.2,0.4-0.4C38,21.5,37.8,20.9,37.3,20.6z"/>
	<path class="st1" d="M13.5,20.9c0-0.9-0.8-1.7-1.7-1.7c-0.9,0-1.7,0.8-1.7,1.7c0,0.9,0.8,1.7,1.7,1.7h1.7V20.9z"/>
</g>
</svg>
