<svg version="1.1" xmlns="http://www.w3.org/2000/svg" viewBox="0 0 48 48" enable-background="new 0 0 48 48">
<g>
	<path fill="#C4C4C4" d="M40.105,6H7.895C6.853,6,6,6.81,6,7.8V15c0,0.99,0.853,1.8,1.895,1.8h32.211C41.147,16.8,42,15.99,42,15
		V7.8C42,6.81,41.147,6,40.105,6"/>
	<path fill="#C4C4C4" d="M40.105,18.6H7.895C6.853,18.6,6,19.41,6,20.4v7.2C6,28.59,6.853,29.4,7.895,29.4h32.211
		C41.147,29.4,42,28.59,42,27.6v-7.2C42,19.41,41.147,18.6,40.105,18.6"/>
	<path fill="#C4C4C4" d="M40.105,31.2H7.895C6.853,31.2,6,32.011,6,33v7.2C6,41.189,6.853,42,7.895,42h32.211
		C41.147,42,42,41.189,42,40.2V33C42,32.011,41.147,31.2,40.105,31.2"/>
	<circle fill="#C4C4C4" cx="24" cy="24" r="14"/>
</g>
<path fill="#354BB5" d="M18.05,26.5c0-0.4-0.1-0.7-0.3-0.9c-0.2-0.199-0.6-0.398-1.1-0.6c-0.9-0.4-1.601-0.8-2-1.3
	c-0.4-0.5-0.601-1.1-0.601-1.8c0-0.8,0.3-1.5,0.8-2c0.601-0.5,1.301-0.8,2.101-0.8c0.6,0,1.1,0.1,1.5,0.4c0.5,0.3,0.8,0.6,1,1.1
	c0.2,0.5,0.4,1,0.4,1.6h-1.9c0-0.5-0.1-0.8-0.3-1.1c-0.2-0.2-0.5-0.4-0.801-0.4c-0.3,0-0.6,0.1-0.8,0.3c-0.2,0.2-0.3,0.5-0.3,0.8
	c0,0.3,0.1,0.5,0.3,0.7c0.2,0.2,0.601,0.4,1.101,0.7c0.899,0.3,1.6,0.8,2,1.3c0.399,0.5,0.6,1.2,0.6,1.9c0,0.898-0.3,1.5-0.8,2
	s-1.2,0.699-2.1,0.699c-0.6,0-1.199-0.1-1.699-0.398s-0.9-0.602-1.2-1.102c-0.3-0.5-0.4-1.1-0.4-1.699h1.9c0,0.601,0.1,1,0.3,1.301
	c0.2,0.3,0.6,0.398,1,0.398C17.65,27.6,18.05,27.2,18.05,26.5z M27.852,24.9c0,1.6-0.4,2.8-1.302,3.6l1.302,1.2l-1.201,1.2
	l-1.699-1.7h-0.5c-1.1,0-1.9-0.4-2.5-1.101c-0.6-0.801-0.9-1.801-0.9-3.199V23.3c0-1.4,0.301-2.4,0.9-3.2c0.6-0.8,1.4-1.2,2.5-1.2
	c1,0,1.9,0.4,2.5,1.1s0.9,1.8,0.9,3.1V24.9z M25.95,23.3c0-0.9-0.101-1.6-0.4-2c-0.198-0.4-0.6-0.7-1.1-0.7s-0.9,0.2-1.1,0.6
	c-0.2,0.4-0.4,1.1-0.4,1.9v1.6c0,0.899,0.1,1.6,0.4,2c0.199,0.399,0.6,0.6,1.1,0.6s0.899-0.2,1.1-0.6c0.2-0.4,0.4-1.101,0.4-2V23.3z
	 M31.15,27.4h3.3V29.1h-5.2v-10h1.9V27.4z" data-hover="fond"/>
</svg>
