<?xml version="1.0" encoding="utf-8"?>
<!-- Generator: Adobe Illustrator 24.2.3, SVG Export Plug-In . SVG Version: 6.00 Build 0)  -->
<svg version="1.1" id="Calque_1" xmlns="http://www.w3.org/2000/svg" xmlns:xlink="http://www.w3.org/1999/xlink" x="0px" y="0px"
	 viewBox="0 0 48 48" style="enable-background:new 0 0 48 48;" xml:space="preserve">
<style type="text/css">
	.st0{fill:#76CE93;}
	.st1{fill:#019639;}
	.st2{fill:#FFFFFF;}
</style>
<path class="st0" d="M42,37c0,2.8-2.2,5-5,5H11c-2.8,0-5-2.2-5-5V11c0-2.8,2.2-5,5-5h26c2.8,0,5,2.2,5,5V37z"/>
<g>
	<path class="st1" d="M23.9,9.8L23.9,9.8c0.4,0.2,0.7,0.3,1.1,0.5c3.7,2.1,7.3,4.2,11,6.3c0.3,0.2,0.5,0.5,0.4,0.8
		c0,4.4,0,8.9,0,13.3c0,0.2-0.2,0.4-0.4,0.5c-3.9,2.2-7.8,4.5-11.7,6.7c-0.2,0.1-0.5,0.2-0.7,0c-3.9-2.2-7.8-4.5-11.7-6.7
		c-0.3-0.1-0.4-0.4-0.4-0.7c0-4.4,0-8.9,0-13.3c0-0.3,0.1-0.6,0.4-0.7c3.7-2.1,7.3-4.2,11-6.3C23.3,10.2,23.6,10,23.9,9.8"/>
	<path class="st2" d="M16.7,18.5c0,3.7,0,7.3,0,11c0,0.4,0.1,0.8,0.4,1.1c0.6,0.6,1.4,0.6,2.1,0.2c0.4-0.3,0.7-0.8,0.7-1.3
		c0-2.7,0-5.3,0-8c2.4,2.9,4.8,5.8,7.3,8.7c0.7,0.7,1.7,1,2.6,0.8c0.7-0.1,1.2-0.7,1.3-1.4c0-3.7,0-7.5,0-11.2
		c-0.1-0.9-0.9-1.5-1.7-1.5c-0.8,0.1-1.4,0.7-1.5,1.5c0,2.7,0,5.4,0,8.1c-2.4-2.8-4.7-5.6-7.1-8.4c-0.6-0.8-1.7-1.2-2.7-1.1
		C17.3,17,16.7,17.7,16.7,18.5z"/>
</g>
</svg>
