<?xml version="1.0" encoding="utf-8"?>
<!-- Generator: Adobe Illustrator 28.0.0, SVG Export Plug-In . SVG Version: 6.00 Build 0)  -->
<svg version="1.1" id="Calque_1" xmlns="http://www.w3.org/2000/svg" xmlns:xlink="http://www.w3.org/1999/xlink" x="0px" y="0px"
	 viewBox="0 0 48 48" style="enable-background:new 0 0 48 48;" xml:space="preserve">
<style type="text/css">
	.st0{fill:#02041E;}
	.st1{fill:#00DC82;}
</style>
<path class="st0" d="M42,37c0,2.8-2.2,5-5,5H11c-2.8,0-5-2.2-5-5V11c0-2.8,2.2-5,5-5h26c2.8,0,5,2.2,5,5V37z"/>
<path class="st1" d="M25.6,32.6h9.6c0.3,0,0.6-0.1,0.9-0.3c0.3-0.2,0.5-0.3,0.7-0.6c0.2-0.3,0.3-0.6,0.3-0.9c0-0.3-0.1-0.6-0.3-0.9
	l-6.5-11.2c-0.2-0.3-0.3-0.5-0.6-0.6c-0.3-0.2-0.6-0.3-1-0.3c-0.3,0-0.6,0.1-0.9,0.3c-0.3,0.2-0.5,0.3-0.6,0.6l-1.6,2.9l-3.3-5.5
	c-0.2-0.3-0.3-0.5-0.6-0.7c-0.3-0.2-0.6-0.2-0.9-0.2c-0.3,0-0.6,0-0.9,0.2c-0.3,0.2-0.5,0.4-0.7,0.7l-8,13.8
	c-0.2,0.3-0.2,0.6-0.2,0.9c0,0.3,0,0.6,0.2,0.9c0.2,0.3,0.4,0.5,0.7,0.6c0.3,0.2,0.6,0.3,0.9,0.3h6.1c2.4,0,4.1-1.1,5.4-3.1l2.9-5.1
	l1.6-2.7l4.8,8.1h-6.3L25.6,32.6z M18.7,29.9h-4.2L20.8,19l3.2,5.4l-2.1,3.7C21.1,29.4,20.2,29.9,18.7,29.9z"/>
</svg>
