<svg version="1.1" xmlns="http://www.w3.org/2000/svg" viewBox="0 0 48 48" enable-background="new 0 0 48 48">
<path fill="#DBDFE1" d="M42,37c0,2.762-2.238,5-5,5H11c-2.762,0-5-2.238-5-5V11c0-2.762,2.238-5,5-5h26c2.762,0,5,2.238,5,5V37z"/>
<g>
	<path fill="#D40043" d="M29.553,15.377c-0.08-0.025-0.172-0.046-0.244-0.076c0.525-1.101,0.506-1.786,1.643-2.557
		c-5.45,0.924-8.324,2.131-11.004,3.734c-0.565,1.449-1.123,3.284-1.328,5.26c-0.073-0.773-0.073-2.56-0.049-4.34
		c-0.599,0.445-1.132,0.9-1.586,1.363c-0.205,2.515,0.019,4.929,0.019,4.929s-0.698-1.587-1.216-3.471
		c-3.533,5.211,0.104,10.783,0.104,10.783C15.456,26.41,22.729,19.558,29.553,15.377z" data-hover="fond"/>
	<path fill="#551C84" d="M29.553,15.377c-6.824,4.181-14.097,11.033-13.664,15.628c0,0,0.062,0.01,0.184,0.02
		c1.166,0.094,7.77,0.086,16.023-10.757c-1.316-0.04-2.736-0.198-3.795-0.63c-0.35-0.144-0.664-0.318-0.918-0.528
		c1.113,0.429,4.018-0.262,6.201-0.896c0.631-0.912,0.928-1.336,1.572-2.378C33.092,16.134,30.904,15.805,29.553,15.377z" data-hover="fond" />
	<path fill="#F0BC61" d="M29.309,15.302c0.072,0.03,0.164,0.051,0.244,0.076c2.959-1.812,5.836-3.126,7.961-3.531
		c-2.029,0.191-3.885,0.437-5.588,0.725C30.791,13.341,29.834,14.201,29.309,15.302z" data-hover="fond" />
	<path fill="#F0BC61" d="M29.553,15.377c1.352,0.427,3.883,0.208,5.949-0.091c0.666-1.071,1.334-2.214,2.012-3.439
		C35.389,12.251,32.512,13.565,29.553,15.377z" data-hover="fond" />
	<path d="M15.726,34.881c0.133-0.719,0.284-1.424,0.459-2.102l-0.013,0.002c3.932-15.239,18.468-20.092,21.337-20.935
		c-3.125,0.78-21.158,5.891-23.774,24.558L15.726,34.881z" data-hover="fond" />
</g>
</svg>
