<?xml version="1.0" encoding="utf-8"?>
<svg version="1.1" xmlns="http://www.w3.org/2000/svg" xmlns:xlink="http://www.w3.org/1999/xlink" viewBox="0 0 48 48">
<path fill="#388E3C" d="M42,37c0,2.8-2.2,5-5,5H11c-2.8,0-5-2.2-5-5V11c0-2.8,2.2-5,5-5h26c2.8,0,5,2.2,5,5V37z"/>
<g>
	<path fill="#FFFFFF" data-hover="fond" d="M35,36.8h-6.4c-0.7,0-1.4-0.4-1.6-1.1c-0.3-0.7-0.1-1.4,0.4-1.9l5.9-5.9v-2.8L22.1,36.3
		c-0.3,0.3-0.8,0.5-1.3,0.5H13c-0.7,0-1.4-0.4-1.6-1.1c-0.3-0.7-0.1-1.4,0.4-1.9l19-19h-2.8L14.2,28.5c-0.5,0.5-1.3,0.7-1.9,0.4
		c-0.7-0.3-1.1-0.9-1.1-1.6v-7.8c0-0.5,0.2-0.9,0.5-1.3l3.4-3.4H13c-1,0-1.8-0.8-1.8-1.8s0.8-1.8,1.8-1.8h6.4c0.7,0,1.4,0.4,1.6,1.1
		c0.3,0.7,0.1,1.4-0.4,1.9l-5.9,5.9v2.8l11.2-11.2c0.3-0.3,0.8-0.5,1.3-0.5H35c0.7,0,1.4,0.4,1.6,1.1c0.3,0.7,0.1,1.4-0.4,1.9
		l-19,19h2.8l13.7-13.7c0.5-0.5,1.3-0.7,1.9-0.4c0.7,0.3,1.1,0.9,1.1,1.6v7.8c0,0.5-0.2,0.9-0.5,1.3l-3.4,3.4H35
		c1,0,1.8,0.8,1.8,1.8C36.8,36,36,36.8,35,36.8z"/>
</g>
</svg>
