<?xml version="1.0" encoding="utf-8"?>
<!-- Generator: Adobe Illustrator 28.0.0, SVG Export Plug-In . SVG Version: 6.00 Build 0)  -->
<svg version="1.1" id="Calque_1" xmlns="http://www.w3.org/2000/svg" xmlns:xlink="http://www.w3.org/1999/xlink" x="0px" y="0px"
	 viewBox="0 0 48 48" style="enable-background:new 0 0 48 48;" xml:space="preserve">
<style type="text/css">
	.st0{fill:#D8E5EF;}
	.st1{fill:#29B6F6;}
	.st2{fill:#0277BD;}
	.st3{fill:#0288D1;}
</style>
<path class="st0" d="M11,6c-2.8,0-5,2.2-5,5v26c0,2.8,2.2,5,5,5h26c2.8,0,5-2.2,5-5V11c0-2.8-2.2-5-5-5H11z"/>
<path class="st1" d="M38.6,14.6v18.8c0,0.9-0.6,1.8-1.4,2.1l-6.4,3l0.6-7.9V17.4l-0.6-7.9l6.4,3C38,12.8,38.6,13.7,38.6,14.6z"/>
<path class="st2" d="M13.1,31.2l18.2-13.8v-7c0-0.9-1.1-1.3-1.7-0.6L9.9,27.8C9.2,28.4,9.3,29.5,10,30c0,0,1,0.9,1.3,1.1
	C11.8,31.6,12.5,31.6,13.1,31.2z"/>
<path class="st3" d="M13.1,16.8l18.2,13.8v7c0,0.9-1.1,1.3-1.7,0.6L9.9,20.2C9.2,19.6,9.3,18.5,10,18c0,0,1-0.9,1.3-1.1
	C11.8,16.4,12.5,16.4,13.1,16.8z"/>
</svg>
