<?xml version="1.0" encoding="utf-8"?>
<!-- Generator: Adobe Illustrator 24.2.3, SVG Export Plug-In . SVG Version: 6.00 Build 0)  -->
<svg version="1.1" id="Calque_1" xmlns="http://www.w3.org/2000/svg" xmlns:xlink="http://www.w3.org/1999/xlink" x="0px" y="0px"
	 viewBox="0 0 48 48" style="enable-background:new 0 0 48 48;" xml:space="preserve">
<style type="text/css">
	.st0{fill:#388E3C;}
	.st1{fill:#FFFFFF;}
</style>
<path class="st0" d="M42,37c0,2.8-2.2,5-5,5H11c-2.8,0-5-2.2-5-5V11c0-2.8,2.2-5,5-5h26c2.8,0,5,2.2,5,5V37z"/>
<path class="st1" d="M24,9.9c-0.4,0-0.8,0.1-1.1,0.3l-10.7,6.2c-0.7,0.4-1.1,1.2-1.1,2v11.2c0,0.8,0.4,1.6,1.1,2l2.8,1.6
	c1.4,0.7,1.8,0.7,2.5,0.7c2,0,3.2-1.2,3.2-3.3V18.9c0-0.2-0.1-0.3-0.3-0.3h-1.4c-0.2,0-0.3,0.1-0.3,0.3v11.6c0,1-1,1.9-2.6,1.1
	l-2.9-1.7c-0.1-0.1-0.2-0.2-0.2-0.3V18.4c0-0.1,0.1-0.2,0.2-0.3l10.7-6.2c0.1-0.1,0.2-0.1,0.3,0l10.7,6.2c0.1,0.1,0.2,0.2,0.2,0.3
	v11.2c0,0.1-0.1,0.2-0.2,0.3l-10.7,6.2c-0.1,0.1-0.2,0.1-0.3,0l-2.8-1.6c-0.1-0.1-0.2-0.1-0.3,0c-0.8,0.4-0.9,0.5-1.6,0.7
	c-0.2,0.1-0.4,0.2,0.1,0.5l3.6,2.1c0.3,0.2,0.7,0.3,1.1,0.3c0.4,0,0.8-0.1,1.1-0.3l10.7-6.2c0.7-0.4,1.1-1.1,1.1-2V18.4
	c0-0.8-0.4-1.6-1.1-2l-10.7-6.2C24.8,10,24.4,9.9,24,9.9z M26.9,18.6c-3.1,0-4.9,1.3-4.9,3.5c0,2.3,1.8,3,4.8,3.3
	c3.5,0.3,3.8,0.9,3.8,1.6c0,1.2-1,1.7-3.2,1.7c-2.8,0-3.5-0.7-3.7-2.1c0-0.2-0.2-0.3-0.3-0.3h-1.4c-0.2,0-0.3,0.1-0.3,0.3
	c0,1.8,1,4,5.7,4c3.4,0,5.3-1.3,5.3-3.7c0-2.3-1.6-2.9-4.9-3.4c-3.3-0.4-3.7-0.7-3.7-1.4c0-0.6,0.3-1.5,2.8-1.5c2.2,0,3,0.5,3.4,2
	c0,0.1,0.2,0.2,0.3,0.2h1.4c0.1,0,0.2,0,0.2-0.1c0.1-0.1,0.1-0.1,0.1-0.2C32,19.8,30.3,18.6,26.9,18.6z"/>
</svg>
