<?xml version="1.0" encoding="utf-8"?>
<!-- Generator: Adobe Illustrator 24.2.3, SVG Export Plug-In . SVG Version: 6.00 Build 0)  -->
<svg version="1.1" id="Calque_1" xmlns="http://www.w3.org/2000/svg" xmlns:xlink="http://www.w3.org/1999/xlink" x="0px" y="0px"
	 viewBox="0 0 48 48" style="enable-background:new 0 0 48 48;" xml:space="preserve">
<style type="text/css">
	.st0{fill:#FFE6E2;}
	.st1{fill:#FC573B;}
	.st2{fill:#FD907E;}
</style>
<polygon class="st0" points="32.3,17.4 38,15.1 32.8,13.1 27.1,15.3 "/>
<path class="st0" d="M16.3,17.2c2.6,0,4.7-0.8,4.7-1.8s-2.1-1.8-4.7-1.8c-2.6,0-4.7,0.8-4.7,1.8S13.7,17.2,16.3,17.2z"/>
<polygon class="st0" points="24.9,14.7 25.7,12.9 29,12.6 26.4,11.6 27.1,10 24.6,10.8 21.9,9.8 22.8,11.4 20,12.4 23.8,12.7 "/>
<polygon class="st0" points="24.7,21.1 27.4,17.3 18.6,18.6 "/>
<path class="st0" d="M41.4,20.1c-2,1.1-12.5,5.4-14.7,6.5c-2.2,1.2-3.5,1.1-5.2,0.3c-1.8-0.8-12.9-5.3-14.9-6.3
	c-0.2-0.1-0.4-0.2-0.6-0.3v2.6c0.2,0.1,0.4,0.2,0.6,0.3c2,1,13.1,5.5,14.9,6.3c1.8,0.8,3,0.9,5.2-0.3c2.2-1.2,12.7-5.5,14.7-6.5
	c0.2-0.1,0.4-0.2,0.6-0.3v-2.6C41.8,19.9,41.7,20,41.4,20.1z"/>
<path class="st0" d="M26.7,33.1c-2.2,1.2-3.5,1.1-5.2,0.3C19.7,32.5,8.6,28,6.6,27.1C6.4,27,6.2,26.9,6,26.8v2.4
	c0.2,0.1,0.4,0.2,0.6,0.3c2,1,13.1,5.5,14.9,6.3c1.8,0.8,3,0.9,5.2-0.3C29,34.3,39.4,30,41.4,29c0.2-0.1,0.4-0.2,0.6-0.3v-2.4
	c-0.2,0.1-0.3,0.2-0.6,0.3C39.4,27.6,29,31.9,26.7,33.1z"/>
<path class="st1" d="M41.4,29c-2,1.1-12.5,5.4-14.7,6.5c-2.2,1.2-3.5,1.1-5.2,0.3c-1.8-0.8-12.9-5.3-14.9-6.3
	c-0.2-0.1-0.4-0.2-0.6-0.3V33v4c0,2.8,2.2,5,5,5h26c2.8,0,5-2.2,5-5v-4.5v-3.8C41.8,28.7,41.7,28.9,41.4,29z"/>
<path class="st2" d="M26.7,29.2c-2.2,1.2-3.5,1.1-5.2,0.3c-1.8-0.8-12.9-5.3-14.9-6.3C6.4,23.1,6.2,23,6,22.9v3.8
	c0.2,0.1,0.4,0.2,0.6,0.3c2,1,13.1,5.5,14.9,6.3c1.8,0.8,3,0.9,5.2-0.3c2.2-1.2,12.7-5.5,14.7-6.5c0.2-0.1,0.4-0.2,0.6-0.3v-3.8
	c-0.2,0.1-0.3,0.2-0.6,0.3C39.4,23.8,29,28.1,26.7,29.2z"/>
<path class="st1" d="M37,6H11c-2.8,0-5,2.2-5,5v3.6v5.7c0.2,0.1,0.4,0.2,0.6,0.3c2,1,13.1,5.5,14.9,6.3c1.8,0.8,3,0.9,5.2-0.3
	c2.2-1.2,12.7-5.5,14.7-6.5c0.2-0.1,0.4-0.2,0.6-0.3v-5.6V11C42,8.2,39.8,6,37,6z M21.9,9.8l2.6,1l2.5-0.8l-0.7,1.6l2.5,1l-3.3,0.3
	l-0.7,1.8l-1.2-2L20,12.4l2.8-1L21.9,9.8z M11.6,15.4c0-1,2.1-1.8,4.7-1.8c2.6,0,4.7,0.8,4.7,1.8s-2.1,1.8-4.7,1.8
	C13.7,17.2,11.6,16.4,11.6,15.4z M24.7,21.1l-6.1-2.5l8.8-1.3L24.7,21.1z M32.3,17.4l-5.2-2l5.7-2.3l5.2,2.1L32.3,17.4z"/>
</svg>
