<?xml version="1.0" encoding="utf-8"?>
<svg version="1.1" xmlns="http://www.w3.org/2000/svg" xmlns:xlink="http://www.w3.org/1999/xlink" viewBox="0 0 48 48">
    <path fill="#548FFF" d="M42,37c0,2.8-2.2,5-5,5H11c-2.8,0-5-2.2-5-5V11c0-2.8,2.2-5,5-5h26c2.8,0,5,2.2,5,5V37z"/>
    <path fill="#C7DDFF" data-hover="fond" d="M24,18.1c-3.3,0-5.9,2.7-5.9,5.9s2.7,5.9,5.9,5.9s5.9-2.7,5.9-5.9C29.9,20.7,27.2,18.1,24,18.1z"/>
    <circle fill="#C7DDFF" data-hover="fond" cx="32.4" cy="15.9" r="2.7"/>
    <path fill="#C7DDFF" data-hover="fond" d="M35.8,18.6l-0.1-0.2l-0.2,0.2c-0.4,0.5-1,0.9-1.6,1.1l-0.2,0.1l0.1,0.2c0.5,1.3,0.8,2.7,0.8,4.1
    	c0,5.9-4.8,10.6-10.6,10.6S13.3,29.8,13.3,24S18.1,13.4,24,13.4c1.6,0,3.1,0.4,4.5,1l0.2,0.1l0.1-0.2c0.3-0.6,0.7-1.1,1.2-1.6
    	l0.2-0.2l-0.2-0.1c-1.9-1-3.9-1.4-6-1.4c-7.2,0-13,5.8-13,13s5.8,13,13,13s13-5.8,13-13C36.9,22.1,36.5,20.3,35.8,18.6z"/>
</svg>
