<svg version="1.1" xmlns="http://www.w3.org/2000/svg" viewBox="0 0 48 48" enable-background="new 0 0 48 48">
<path fill="#EEEEEE" d="M42,37c0,2.762-2.238,5-5,5H11c-2.762,0-5-2.238-5-5V11c0-2.762,2.238-5,5-5h26c2.762,0,5,2.238,5,5V37z"/>
<g>
	<path fill="#0277BD" d="M24.306,12c-0.982,0.002-1.664,0.09-2.486,0.232c-2.43,0.423-2.873,1.312-2.873,2.949v2.503h5.685v1.263
		h-5.9h-2.748c-1.665,0-3.122,0.785-3.583,2.665c-0.521,2.158-0.545,3.509,0,5.763c0.414,1.681,1.325,2.941,2.99,2.941h2.294v-3.225
		c0-1.873,1.696-3.723,3.64-3.723h4.569c1.594,0,3.158-1.176,3.158-2.765v-5.423c0-1.541-1.111-2.692-2.664-2.95
		C26.428,12.227,25.278,11.997,24.306,12z M21.157,14.527c0.519,0,0.948,0.427,0.948,0.948c0,0.526-0.429,0.946-0.948,0.946
		c-0.528,0-0.947-0.419-0.947-0.946C20.21,14.956,20.629,14.527,21.157,14.527z"/>
	<path fill="#FFC107" d="M23.693,36c0.981-0.004,1.663-0.09,2.485-0.232c2.432-0.423,2.874-1.311,2.874-2.95v-2.503h-5.684v-1.263
		h5.899h2.747c1.666,0,3.123-0.785,3.584-2.665c0.521-2.158,0.545-3.51,0-5.763c-0.414-1.681-1.325-2.941-2.991-2.941h-2.293v3.223
		c0,1.874-1.696,3.724-3.641,3.724h-4.569c-1.593,0-3.158,1.176-3.158,2.764v5.423c0,1.541,1.111,2.693,2.664,2.951
		C21.571,35.772,22.72,36.004,23.693,36z M26.842,33.473c-0.519,0-0.948-0.428-0.948-0.948c0-0.526,0.43-0.945,0.948-0.945
		c0.528,0,0.948,0.419,0.948,0.945C27.79,33.044,27.369,33.473,26.842,33.473z"/>
</g>
</svg>
