<svg version="1.1" xmlns="http://www.w3.org/2000/svg" viewBox="0 0 48 48" enable-background="new 0 0 48 48">
<path fill="#FFFFFF" d="M42,37c0,2.762-2.238,5-5,5H11c-2.762,0-5-2.238-5-5V11c0-2.762,2.238-5,5-5h26c2.762,0,5,2.238,5,5V37z"/>
<g>
	<path fill="#03A9F4" d="M23.205,24.34l-2.326,8.051c-2.02-1.366-4.218-2.495-8.879-0.554l2.271-7.963l0.028-0.013
		C18.943,21.938,21.192,22.964,23.205,24.34z"/>
	<path fill="#FFC107" d="M24.422,25.119l-2.298,7.963c2.019,1.378,4.254,2.479,8.911,0.536l2.216-7.762
		C28.507,27.493,26.439,26.485,24.422,25.119z"/>
	<path fill="#FF5722" d="M23.592,22.891l2.294-7.976c-2.019-1.374-4.257-2.478-8.917-0.531l-2.295,8.009
		c1.85-0.769,3.313-1.121,4.538-1.111C21.07,21.294,22.376,22.068,23.592,22.891z"/>
	<path fill="#7CB342" d="M27.096,15.753l-2.292,8.022c2.011,1.375,4.444,2.5,8.905,0.492L36,16.276
		C31.348,18.211,29.11,17.125,27.096,15.753z"/>
</g>
</svg>
