<svg version="1.1" xmlns="http://www.w3.org/2000/svg" viewBox="0 0 48 48" enable-background="new 0 0 48 48">
<path fill="#4DB6AC" d="M42,37c0,2.762-2.238,5-5,5H11c-2.762,0-5-2.238-5-5V11c0-2.762,2.238-5,5-5h26c2.762,0,5,2.238,5,5V37z"/>
<g>
	<path d="M19.9,25.7c-0.1,1.1-0.4,2-1,2.6c-0.6,0.6-1.4,0.9-2.5,0.9c-1.1,0-2-0.4-2.6-1.1c-0.6-0.7-0.9-1.8-0.9-3.2
	v-1.7c0-1.4,0.3-2.4,0.9-3.2c0.6-0.7,1.5-1.1,2.6-1.1c1.1,0,1.9,0.3,2.5,0.9c0.6,0.6,0.9,1.5,1,2.6h-2c0-0.7-0.1-1.2-0.3-1.5
	c-0.2-0.3-0.6-0.4-1.1-0.4c-0.5,0-0.9,0.2-1.1,0.6c-0.2,0.4-0.3,1-0.4,1.9v1.9c0,1,0.1,1.7,0.3,2c0.2,0.4,0.6,0.6,1.1,0.6
	c0.5,0,0.9-0.1,1.1-0.4c0.2-0.3,0.3-0.7,0.3-1.4H19.9z M25.4,26.4c0-0.4-0.1-0.7-0.3-0.9c-0.2-0.2-0.6-0.4-1.1-0.6
	c-1-0.4-1.7-0.8-2.2-1.3c-0.4-0.5-0.7-1.1-0.7-1.8c0-0.8,0.3-1.5,0.9-2c0.6-0.5,1.4-0.8,2.3-0.8c0.6,0,1.2,0.1,1.6,0.4
	c0.5,0.3,0.8,0.6,1.1,1.1c0.3,0.5,0.4,1,0.4,1.6h-2c0-0.5-0.1-0.8-0.3-1.1c-0.2-0.2-0.5-0.4-0.9-0.4c-0.4,0-0.6,0.1-0.8,0.3
	c-0.2,0.2-0.3,0.5-0.3,0.8c0,0.3,0.1,0.5,0.3,0.7c0.2,0.2,0.6,0.4,1.2,0.7c1,0.3,1.7,0.8,2.1,1.3c0.4,0.5,0.7,1.2,0.7,1.9
	c0,0.9-0.3,1.5-0.8,2c-0.6,0.5-1.3,0.7-2.2,0.7c-0.6,0-1.2-0.1-1.8-0.4c-0.5-0.3-0.9-0.6-1.2-1.1c-0.3-0.5-0.4-1.1-0.4-1.7h2
	c0,0.6,0.1,1,0.3,1.3c0.2,0.3,0.6,0.4,1.1,0.4C25,27.5,25.4,27.1,25.4,26.4z M32.9,26.4c0-0.4-0.1-0.7-0.3-0.9
	c-0.2-0.2-0.6-0.4-1.1-0.6c-1-0.4-1.7-0.8-2.2-1.3c-0.4-0.5-0.7-1.1-0.7-1.8c0-0.8,0.3-1.5,0.9-2c0.6-0.5,1.4-0.8,2.3-0.8
	c0.6,0,1.2,0.1,1.6,0.4c0.5,0.3,0.8,0.6,1.1,1.1c0.3,0.5,0.4,1,0.4,1.6h-2c0-0.5-0.1-0.8-0.3-1.1c-0.2-0.2-0.5-0.4-0.9-0.4
	c-0.4,0-0.6,0.1-0.8,0.3c-0.2,0.2-0.3,0.5-0.3,0.8c0,0.3,0.1,0.5,0.3,0.7c0.2,0.2,0.6,0.4,1.2,0.7c1,0.3,1.7,0.8,2.1,1.3
	c0.4,0.5,0.7,1.2,0.7,1.9c0,0.9-0.3,1.5-0.8,2c-0.6,0.5-1.3,0.7-2.2,0.7c-0.6,0-1.2-0.1-1.8-0.4c-0.5-0.3-0.9-0.6-1.2-1.1
	c-0.3-0.5-0.4-1.1-0.4-1.7h2c0,0.6,0.1,1,0.3,1.3c0.2,0.3,0.6,0.4,1.1,0.4C32.6,27.5,32.9,27.1,32.9,26.4z" fill="#FFFFFF" data-hover="fond"/>
</g>
</svg>
