<svg version="1.1" xmlns="http://www.w3.org/2000/svg" viewBox="0 0 48 48" enable-background="new 0 0 48 48">
<path fill="#EEEEEE" d="M42,37c0,2.762-2.238,5-5,5H11c-2.762,0-5-2.238-5-5V11c0-2.762,2.238-5,5-5h26c2.762,0,5,2.238,5,5V37z"/>
<g>
	<g>
		<path fill="#F44336" d="M23.79,24.538c-0.599-0.965-1.033-1.765-1.635-3.272c-1.018-2.545,6.189-4.846,3.267-9.266
			c1.267,3.053-4.546,4.941-5.086,7.484C19.841,21.822,23.787,24.538,23.79,24.538z"/>
		<path fill="#F44336" d="M23.926,19.962c-0.115,1.51,1.337,2.314,1.379,3.417c0.034,0.898-0.867,1.646-0.867,1.646
			s1.637-0.322,2.146-1.691c0.568-1.521-1.1-2.561-0.927-3.779c0.159-1.163,3.617-3.326,3.617-3.326S24.186,16.567,23.926,19.962z"
			/>
	</g>
	<g>
		<path fill="#1565C0" d="M28.85,24.632c1.053-0.235,1.94,0.434,1.94,1.207c0,1.74-2.413,3.386-2.413,3.386s3.736-0.445,3.736-3.304
			C32.113,24.031,30.278,23.56,28.85,24.632z"/>
		<path fill="#1565C0" d="M27.076,26.037c0,0,1.166-0.831,1.476-1.142c-2.858,0.606-9.382,0.688-9.382,0.161
			c0-0.485,2.104-0.982,2.104-0.982s-4.664-0.067-4.664,1.308C16.609,26.817,22.714,26.919,27.076,26.037z"/>
		<path fill="#1565C0" d="M26.361,27.342c-2.707,0.9-7.689,0.613-6.213-0.595c-0.719,0-1.785,0.576-1.785,1.133
			c0,1.114,5.39,1.975,9.379,0.344L26.361,27.342z"/>
		<path fill="#1565C0" d="M20.811,29.243c-0.981,0-1.616,0.633-1.616,1.093c0,1.436,5.856,1.58,8.176,0.123l-1.476-0.979
			C24.162,30.242,19.808,30.347,20.811,29.243z"/>
		<path fill="#1565C0" d="M31.368,31.579c0-0.562-0.633-0.826-0.859-0.953c1.336,3.224-13.39,2.974-13.39,1.07
			c0-0.433,1.084-0.856,2.086-0.656l-0.852-0.503C16.356,30.224,15,31.102,15,31.81C15,35.111,31.368,34.953,31.368,31.579z"/>
		<path fill="#1565C0" d="M33,32.763c-2.488,2.457-8.796,3.353-15.139,1.835C24.204,37.299,32.97,35.776,33,32.763z"/>
	</g>
</g>
</svg>
