<svg version="1.1" xmlns="http://www.w3.org/2000/svg" viewBox="0 0 48 48" enable-background="new 0 0 48 48">
<path fill="#EA6D42" d="M42,37c0,2.762-2.238,5-5,5H11c-2.762,0-5-2.238-5-5V11c0-2.762,2.238-5,5-5h26c2.762,0,5,2.238,5,5V37z"/>
<g>
	<path fill="#FFFFFF" d="M22.405,29.113h-1.71v-1.682h1.71V29.113z"/>
	<path fill="#FFFFFF" d="M18.5,27.445c-0.004,0-0.995,0-1,0c-0.536,0-0.929-0.189-1.15-0.555c-0.223-0.369-0.332-1.052-0.332-2.037
		v-1.881c0.012-0.861,0.131-1.479,0.354-1.854c0.224-0.372,0.6-0.56,1.129-0.563h1v-1.668h-1c-1.096,0.004-1.952,0.373-2.568,1.11
		C14.312,20.736,14,21.792,14,23.159v1.675c0,1.371,0.301,2.428,0.899,3.168s1.476,1.111,2.601,1.111c0.005,0,0.996,0,1,0V27.445z"
		/>
	<path fill="#FFFFFF" d="M30.458,27.445c0.004,0,0.995,0,1,0c0.536,0,0.929-0.189,1.149-0.555c0.224-0.369,0.332-1.052,0.332-2.037
		v-1.881c-0.012-0.861-0.131-1.479-0.354-1.854c-0.225-0.372-0.6-0.56-1.129-0.563h-1v-1.668h1c1.096,0.004,1.952,0.373,2.568,1.11
		c0.619,0.738,0.932,1.795,0.932,3.161v1.675c0,1.371-0.301,2.428-0.898,3.168c-0.599,0.74-1.477,1.11-2.602,1.11
		c-0.005,0-0.996,0-1,0L30.458,27.445L30.458,27.445z"/>
	<polygon fill="#FFFFFF" points="26.836,21.716 27.832,23.036 26.716,23.875 25.732,22.496 24.785,23.875 23.67,23.036
		24.701,21.716 23.13,21.225 23.562,19.917 25.098,20.493 25.061,18.814 26.488,18.814 26.404,20.493 27.951,19.917 28.407,21.225
		"/>
</g>
</svg>
