<svg version="1.1" xmlns="http://www.w3.org/2000/svg" viewBox="0 0 48 48" enable-background="new 0 0 48 48">
<path fill="#264970" d="M42,37c0,2.762-2.238,5-5,5H11c-2.762,0-5-2.238-5-5V11c0-2.762,2.238-5,5-5h26c2.762,0,5,2.238,5,5V37z"/>
<path fill="#FFFFFF" d="M24.633,34.792v-2.084l5.204-2.636c0.125-0.064,0.203-0.191,0.203-0.332v-1.192
	c0.486-0.169,0.812-0.653,0.757-1.187c-0.064-0.623-0.621-1.076-1.244-1.012s-1.076,0.621-1.012,1.244
	c0.047,0.452,0.354,0.814,0.758,0.954v0.965l-4.666,2.363v-1.938l2.057-0.951c0.131-0.061,0.215-0.192,0.215-0.337l0.004-3.229
	l3.807-2.138c0.117-0.066,0.189-0.189,0.189-0.324v-0.901c0.486-0.168,0.812-0.653,0.756-1.187
	c-0.064-0.624-0.621-1.076-1.243-1.012c-0.623,0.064-1.075,0.621-1.012,1.244c0.047,0.452,0.354,0.814,0.757,0.954v0.684
	l-3.807,2.137c-0.116,0.066-0.189,0.189-0.189,0.324l-0.004,3.209l-1.529,0.707v-6.978l3.201-1.566
	c0.128-0.062,0.209-0.191,0.209-0.333v-1.193c0.486-0.168,0.812-0.653,0.756-1.187c-0.064-0.623-0.621-1.076-1.244-1.011
	c-0.623,0.064-1.075,0.621-1.011,1.245c0.046,0.452,0.354,0.813,0.757,0.953v0.962l-2.668,1.304v-4.029
	c0.485-0.168,0.812-0.653,0.756-1.187c-0.063-0.623-0.621-1.076-1.244-1.012c-0.623,0.065-1.076,0.622-1.011,1.245
	c0.046,0.452,0.353,0.814,0.756,0.954v6.571l-1.886-0.991V19.88c0-0.115-0.054-0.224-0.146-0.294l-1.29-0.988
	c0.07-0.169,0.101-0.356,0.081-0.551c-0.064-0.623-0.622-1.075-1.244-1.011c-0.623,0.064-1.076,0.621-1.011,1.244
	c0.064,0.623,0.621,1.076,1.244,1.012c0.158-0.017,0.305-0.065,0.436-0.138l1.188,0.911v3.025c0,0.138,0.077,0.265,0.199,0.329
	l2.43,1.276v2.413l-4.054-1.875l0.056-1.468c0.005-0.145-0.073-0.279-0.202-0.344l-1.858-0.953c0.028-0.12,0.038-0.245,0.024-0.374
	c-0.064-0.623-0.621-1.076-1.244-1.012c-0.623,0.064-1.076,0.621-1.012,1.244c0.064,0.623,0.621,1.075,1.244,1.011
	c0.224-0.023,0.424-0.11,0.588-0.241l1.708,0.876l-0.056,1.479c-0.006,0.149,0.079,0.288,0.215,0.351l4.589,2.123v1.723
	c-0.004,0.032-0.004,0.065,0,0.098v5.062c-0.391-0.004-0.776-0.029-1.156-0.073v-4.352c0-0.146-0.084-0.276-0.216-0.337
	l-2.879-1.325c0.007-0.074,0.007-0.149-0.001-0.228c-0.064-0.622-0.621-1.075-1.244-1.011c-0.623,0.064-1.076,0.621-1.012,1.244
	c0.064,0.622,0.621,1.075,1.244,1.011c0.278-0.028,0.521-0.155,0.701-0.343l2.664,1.226v4.001
	c-5.005-0.944-8.804-5.347-8.804-10.622c0-5.962,4.851-10.812,10.812-10.812S34.812,18.038,34.812,24
	C34.812,29.75,30.301,34.463,24.633,34.792L24.633,34.792z M24,12c-6.617,0-12,5.383-12,12c0,6.617,5.383,12,12,12
	c6.617,0,12-5.383,12-12C36,17.383,30.617,12,24,12L24,12z"/>
</svg>
