<svg version="1.1" xmlns="http://www.w3.org/2000/svg" viewBox="0 0 48 48" enable-background="new 0 0 48 48">
<path fill="#90A4AE" d="M31,39c3,0-17,0-14,0s3-5,3-5h8C28,34,28,39,31,39z"/>
<path fill="#455A64" d="M42,6H6C4.9,6,4,6.9,4,8v22h40V8C44,6.9,43.1,6,42,6z"/>
<rect fill="#BBDEFB" data-hover="fond" x="6" y="8" width="36" height="20"/>
<path fill="#B0BEC5" d="M4,30h40v2c0,1.1-0.9,2-2,2H6c-1.1,0-2-0.9-2-2V30z M32,39H16v2h16V39z"/>
<circle fill="#37474F" data-hover="fond" cx="24" cy="32" r="1"/>
</svg>
