<svg version="1.1" xmlns="http://www.w3.org/2000/svg" viewBox="0 0 48 48" enable-background="new 0 0 48 48">
<path fill="#0099FF" d="M42,37c0,2.762-2.238,5-5,5H11c-2.762,0-5-2.238-5-5V11c0-2.762,2.238-5,5-5h26c2.762,0,5,2.238,5,5V37z"/>
<g>
	<path fill="#FFFFFF" data-hover="fond" d="M40.41,25.661c-0.051,1.136-0.369,1.993-0.957,2.577c-0.588,0.582-1.418,0.875-2.488,0.875
		c-1.125,0-1.988-0.37-2.587-1.111c-0.599-0.74-0.899-1.796-0.899-3.168v-1.675c0-1.366,0.311-2.422,0.931-3.161
		c0.62-0.741,1.481-1.111,2.584-1.111c1.083,0,1.908,0.304,2.472,0.909c0.562,0.605,0.883,1.478,0.959,2.611h-2.018
		c-0.018-0.702-0.125-1.188-0.324-1.452c-0.197-0.269-0.562-0.4-1.09-0.4c-0.538,0-0.918,0.188-1.143,0.564
		c-0.223,0.375-0.342,0.993-0.354,1.854v1.88c0,0.988,0.11,1.668,0.332,2.037c0.222,0.367,0.601,0.555,1.138,0.555
		c0.529,0,0.894-0.129,1.094-0.387c0.201-0.26,0.314-0.725,0.343-1.397H40.41z"/>
	<path fill="#FFFFFF" data-hover="fond" d="M14.754,24.896c0,1.334-0.315,2.371-0.946,3.109s-1.508,1.107-2.629,1.107
		c-1.117,0-1.994-0.367-2.632-1.098c-0.638-0.732-0.961-1.756-0.971-3.072V23.24c0-1.367,0.317-2.435,0.95-3.203
		c0.633-0.768,1.513-1.15,2.639-1.15c1.107,0,1.98,0.377,2.618,1.132c0.638,0.754,0.962,1.813,0.971,3.175V24.896z M12.737,23.228
		c0-0.897-0.127-1.565-0.383-2.003s-0.652-0.656-1.189-0.656c-0.533,0-0.927,0.211-1.184,0.633
		c-0.254,0.422-0.386,1.062-0.396,1.924v1.771c0,0.871,0.13,1.512,0.39,1.924c0.26,0.414,0.66,0.619,1.203,0.619
		c0.523,0,0.914-0.201,1.17-0.605c0.254-0.4,0.385-1.027,0.39-1.875L12.737,23.228L12.737,23.228z"/>
	<path fill="#FFFFFF" data-hover="fond" d="M15.576,28.977v-9.953h3.076c1.039,0,1.829,0.23,2.368,0.694c0.541,0.462,0.811,1.14,0.811,2.032
		c0,0.506-0.111,0.941-0.335,1.307c-0.224,0.364-0.528,0.631-0.916,0.8c0.446,0.128,0.79,0.384,1.032,0.771
		c0.242,0.385,0.361,0.858,0.361,1.425c0,0.966-0.266,1.694-0.795,2.188c-0.531,0.49-1.301,0.736-2.308,0.736H15.576z
		 M17.586,23.187h1.046c0.789,0,1.184-0.408,1.184-1.225c0-0.45-0.092-0.773-0.273-0.971s-0.479-0.294-0.889-0.294h-1.066
		L17.586,23.187L17.586,23.187z M17.586,24.649v2.659h1.285c0.36,0,0.634-0.111,0.82-0.335c0.186-0.224,0.28-0.54,0.28-0.95
		c0-0.895-0.324-1.352-0.972-1.374H17.586z"/>
	<path fill="#FFFFFF" data-hover="fond" d="M26.336,18.955h2.01v6.891c0,0.967-0.27,1.742-0.807,2.324c-0.537,0.584-1.23,0.875-2.078,0.875
		c-0.912,0-1.62-0.271-2.125-0.812c-0.507-0.542-0.759-1.297-0.759-2.264h2.018c0,0.938,0.289,1.408,0.867,1.408
		c0.584,0,0.875-0.542,0.875-1.627V18.955z"/>
	<path fill="#FFFFFF" data-hover="fond" d="M32.451,23v2h-2.875v-2H32.451z"/>
</g>
</svg>
