<?xml version="1.0" encoding="utf-8"?>
<!-- Generator: Adobe Illustrator 28.0.0, SVG Export Plug-In . SVG Version: 6.00 Build 0)  -->
<svg version="1.1" id="Calque_1" xmlns="http://www.w3.org/2000/svg" xmlns:xlink="http://www.w3.org/1999/xlink" x="0px" y="0px"
	 viewBox="0 0 48 48" style="enable-background:new 0 0 48 48;" xml:space="preserve">
<style type="text/css">
	.st0{fill:#FF2D20;}
	.st1{fill:#FFFFFF;}
</style>
<path class="st0" d="M11,6c-2.8,0-5,2.2-5,5v26c0,2.8,2.2,5,5,5h26c2.8,0,5-2.2,5-5V11c0-2.8-2.2-5-5-5H11z"/>
<path class="st1" d="M38.8,15.6c0,0,0,0.1,0,0.1v6.5c0,0.2-0.1,0.3-0.2,0.4l-5.5,3.2v6.3c0,0.2-0.1,0.3-0.2,0.4l-11.5,6.6
	c0,0-0.1,0-0.1,0c0,0,0,0,0,0c-0.1,0-0.2,0-0.2,0c0,0,0,0,0,0c0,0-0.1,0-0.1,0L9.4,32.6c-0.1-0.1-0.2-0.2-0.2-0.4V12.5
	c0,0,0-0.1,0-0.1c0,0,0,0,0,0c0,0,0-0.1,0-0.1c0,0,0,0,0,0c0,0,0,0,0-0.1c0,0,0,0,0,0c0,0,0,0,0.1,0h0l5.7-3.3
	c0.1-0.1,0.3-0.1,0.5,0l5.7,3.3h0c0,0,0,0,0.1,0c0,0,0,0,0,0c0,0,0,0,0,0.1c0,0,0,0,0,0c0,0,0,0,0,0.1c0,0,0,0,0,0c0,0,0,0.1,0,0.1
	v12.3l4.8-2.8v-6.3c0,0,0-0.1,0-0.1c0,0,0,0,0,0c0,0,0-0.1,0-0.1c0,0,0,0,0,0c0,0,0,0,0-0.1c0,0,0,0,0,0c0,0,0,0,0.1,0h0l5.7-3.3
	c0.1-0.1,0.3-0.1,0.5,0l5.7,3.3c0,0,0,0,0.1,0c0,0,0,0,0,0c0,0,0,0,0,0.1c0,0,0,0,0,0C38.8,15.6,38.8,15.6,38.8,15.6
	C38.8,15.6,38.8,15.6,38.8,15.6L38.8,15.6z M37.9,22v-5.4l-2,1.2l-2.8,1.6v5.4L37.9,22L37.9,22z M32.1,31.9v-5.4L29.4,28l-7.8,4.4
	V38L32.1,31.9z M10.1,13.4v18.5l10.5,6.1v-5.5l-5.5-3.1l0,0l0,0c0,0,0,0-0.1,0c0,0,0,0,0,0l0,0c0,0,0,0,0-0.1c0,0,0,0,0,0l0,0
	c0,0,0,0,0-0.1c0,0,0,0,0-0.1v0c0,0,0,0,0-0.1c0,0,0,0,0-0.1v0V16.1l-2.8-1.6L10.1,13.4L10.1,13.4z M15.4,9.8l-4.8,2.8l4.8,2.8
	l4.8-2.8L15.4,9.8L15.4,9.8z M17.9,26.9l2.8-1.6v-12l-2,1.2l-2.8,1.6v12L17.9,26.9z M32.6,13l-4.8,2.8l4.8,2.8l4.8-2.8L32.6,13z
	 M32.1,19.4l-2.8-1.6l-2-1.2V22l2.8,1.6l2,1.2V19.4z M21.1,31.6l7-4l3.5-2l-4.8-2.7L21.4,26l-5,2.9L21.1,31.6z"/>
</svg>
