<svg version="1.1" xmlns="http://www.w3.org/2000/svg" viewBox="0 0 48 48" enable-background="new 0 0 48 48">
<path fill="#F17D30" d="M42,37c0,2.762-2.238,5-5,5H11c-2.762,0-5-2.238-5-5V11c0-2.762,2.238-5,5-5h26c2.762,0,5,2.238,5,5V37z"/>
<path fill="#FFFFFF" d="M26.787,13.298c10.547,7.169,7.134,15.063,7.134,15.063s3,3.376,1.792,6.341c0,0-1.24-2.066-3.308-2.066
	c-2,0-3.173,2.066-7.204,2.066C16.24,34.702,12,27.224,12,27.224c8.069,5.316,13.58,1.551,13.58,1.551
	c-3.638-2.115-11.374-12.203-11.374-12.203c6.742,5.734,9.651,7.239,9.651,7.239c-1.743-1.434-6.618-8.444-6.618-8.444
	c3.902,3.947,11.651,9.444,11.651,9.444C31.1,18.733,26.787,13.298,26.787,13.298"/>
</svg>
