<?xml version="1.0" encoding="utf-8"?>
<!-- Generator: Adobe Illustrator 24.2.3, SVG Export Plug-In . SVG Version: 6.00 Build 0)  -->
<svg version="1.1" id="Calque_1" xmlns="http://www.w3.org/2000/svg" xmlns:xlink="http://www.w3.org/1999/xlink" x="0px" y="0px"
	 viewBox="0 0 48 48" style="enable-background:new 0 0 48 48;" xml:space="preserve">
<style type="text/css">
	.st0{fill:#EFEFEF;}
</style>
<path d="M37,6H11c-2.8,0-5,2.2-5,5v15.2c1.4,0.7,3,1,4.7,1c5.2-0.1,9.5-3.9,10.4-8.9c0-0.2,0.1-0.4,0.1-0.5c0.5-4,4-7.1,8.2-7
	c4.1,0.1,7.5,3.4,7.8,7.6c0.3,4.6-3.3,8.5-7.9,8.5l-4,0.1c-2.2,0-4,1.9-3.9,4.1l0.2,11H37c2.8,0,5-2.2,5-5V11C42,8.2,39.8,6,37,6z"
	/>
<path class="st0" d="M25.2,26.9l4-0.1c4.5-0.1,8.1-3.9,7.9-8.5c-0.2-4.1-3.6-7.5-7.8-7.6c-4.2-0.1-7.7,3-8.2,7
	c0,0.2-0.1,0.4-0.1,0.5c-0.8,5-5.1,8.8-10.4,8.9c-1.7,0-3.3-0.3-4.7-1V37c0,2.8,2.2,5,5,5h10.5l-0.2-11C21.2,28.8,23,27,25.2,26.9z"
	/>
</svg>
