<svg version="1.1" xmlns="http://www.w3.org/2000/svg" viewBox="0 0 48 48" enable-background="new 0 0 48 48">
<path fill="#00C853" d="M42,37c0,2.762-2.238,5-5,5H11c-2.762,0-5-2.238-5-5V11c0-2.762,2.238-5,5-5h26c2.762,0,5,2.238,5,5V37z"/>
<g>
	<path fill="#FFFFFF" d="M27.459,25.661c-0.051,1.136-0.369,1.993-0.957,2.577c-0.588,0.582-1.418,0.875-2.488,0.875
		c-1.125,0-1.988-0.37-2.587-1.111c-0.599-0.74-0.899-1.796-0.899-3.168v-1.675c0-1.366,0.31-2.421,0.93-3.161
		c0.62-0.741,1.481-1.111,2.584-1.111c1.083,0,1.908,0.304,2.471,0.909c0.563,0.606,0.883,1.478,0.96,2.611h-2.018
		c-0.018-0.702-0.125-1.187-0.324-1.452c-0.198-0.268-0.562-0.4-1.09-0.4c-0.538,0-0.918,0.188-1.142,0.564
		c-0.223,0.375-0.342,0.994-0.355,1.855v1.879c0,0.989,0.11,1.668,0.332,2.037c0.222,0.368,0.601,0.555,1.138,0.555
		c0.529,0,0.893-0.129,1.094-0.387c0.201-0.259,0.314-0.724,0.342-1.397H27.459z"/>
</g>
</svg>
