<?xml version="1.0" encoding="utf-8"?>
<!-- Generator: Adobe Illustrator 24.2.3, SVG Export Plug-In . SVG Version: 6.00 Build 0)  -->
<svg version="1.1" id="Calque_1" xmlns="http://www.w3.org/2000/svg" xmlns:xlink="http://www.w3.org/1999/xlink" x="0px" y="0px"
	 viewBox="0 0 48 48" style="enable-background:new 0 0 48 48;" xml:space="preserve">
<style type="text/css">
	.st0{fill:#EFEFEF;}
	.st1{fill:#41B883;}
	.st2{fill:#34495E;}
</style>
<g>
	<path class="st0" d="M6,37c0,2.8,2.2,5,5,5h12.9L6,15.7V37z"/>
	<polygon class="st0" points="29.3,6 18.7,6 24,13.9 	"/>
	<path class="st0" d="M24.1,42H37c2.8,0,5-2.2,5-5V15.7L24.1,42z"/>
	<polygon class="st1" points="24,42.1 24.1,42 23.9,42 	"/>
	<path class="st1" d="M42,11c0-2.3-1.5-4.2-3.6-4.8L24,27.5L9.6,6.2C7.5,6.8,6,8.7,6,11v4.7L23.9,42h0.1L42,15.7V11z"/>
	<path class="st2" d="M9.6,6.2L24,27.5L38.4,6.2C38,6.1,37.5,6,37,6h-7.7L24,13.9L18.7,6H11C10.5,6,10,6.1,9.6,6.2z"/>
</g>
</svg>
