<?xml version="1.0" encoding="utf-8"?>
<!-- Generator: Adobe Illustrator 28.0.0, SVG Export Plug-In . SVG Version: 6.00 Build 0)  -->
<svg version="1.1" id="Calque_1" xmlns="http://www.w3.org/2000/svg" xmlns:xlink="http://www.w3.org/1999/xlink" x="0px" y="0px"
	 viewBox="0 0 48 48" style="enable-background:new 0 0 48 48;" xml:space="preserve">
<style type="text/css">
	.st0{fill:#7F61A5;}
	.st1{fill:#FFFFFF;}
</style>
<path class="st0" d="M42,37c0,2.8-2.2,5-5,5H11c-2.8,0-5-2.2-5-5V11c0-2.8,2.2-5,5-5h26c2.8,0,5,2.2,5,5V37z"/>
<g>
	<path class="st1" d="M27.2,37.8V22.7c0,0,1-3.6-12.1,1.5c0,0.1,0-14,0-14l4.3,0v9c0,0,12-4.7,12,3.6v15.1H27.2L27.2,37.8z
		 M29.7,15.6h-4.5c1.6-2,3.1-5.4,3.1-5.4h4.7C32.9,10.2,32.1,12.4,29.7,15.6L29.7,15.6z M15.1,37.8v-8.6l4.3,4.3
		C19.5,33.5,15.1,37.8,15.1,37.8z"/>
</g>
</svg>
