<svg version="1.1" xmlns="http://www.w3.org/2000/svg" viewBox="0 0 48 48" enable-background="new 0 0 48 48">
<path fill="#EEEEEE" d="M42,37c0,2.762-2.238,5-5,5H11c-2.762,0-5-2.238-5-5V11c0-2.762,2.238-5,5-5h26c2.762,0,5,2.238,5,5V37z"/>
<g>
    <path fill="#263238" data-hover="fond" d="m26.83308,24.00062a2.83556,2.83556 0 0 1 -2.8368,2.83556l0,0a2.83556,2.83556 0 0 1 -2.83556,-2.83556l0,0a2.83556,2.83556 0 0 1 5.67236,0z" />
    <path fill="#1976d2" data-hover="semi-fond" d="m36.58667,16.73094a14.53813,14.53813 0 0 0 -2.22883,-2.91233l-3.27761,1.89202a10.92124,10.92124 0 0 0 -3.42372,-1.98118a13.45468,13.45468 0 0 0 -2.64983,3.78034a16.0463,16.0463 0 0 1 10.91877,3.80634l2.0629,-1.19118a14.53813,14.53813 0 0 0 -1.40292,-3.39153l0.00124,-0.00248z"/>
    <path fill="#42a5f5" data-hover="fond" d="m36.58791,31.26783a14.53813,14.53813 0 0 0 1.40787,-3.38534l-3.27885,-1.89326a10.92124,10.92124 0 0 0 0.00619,-3.96236a13.45468,13.45468 0 0 0 -4.59881,-0.4049a16.0463,16.0463 0 0 1 2.16815,11.36577l2.0629,1.19118a14.53813,14.53813 0 0 0 2.23254,-2.91109z"/>
    <path fill="#1976d2" data-hover="semi-fond" d="m23.99628,38.53751a14.53813,14.53813 0 0 0 3.6367,-0.47301l0,-3.78653a10.92001,10.92001 0 0 0 3.42991,-1.97251a13.45468,13.45468 0 0 0 -1.94898,-4.18524a16.0463,16.0463 0 0 1 -8.75557,7.55324l0,2.38237a14.53813,14.53813 0 0 0 3.63794,0.48167z"/>
    <path fill="#42a5f5" data-hover="fond" d="m11.40838,31.26907a14.53813,14.53813 0 0 0 2.22883,2.91233l3.27885,-1.89326a10.92001,10.92001 0 0 0 3.42372,1.98118a13.45468,13.45468 0 0 0 2.64983,-3.78034a16.0463,16.0463 0 0 1 -10.91877,-3.80634l-2.06662,1.1949a14.53813,14.53813 0 0 0 1.40416,3.39153z"/>
    <path fill="#1976d2" data-hover="semi-fond" d="m11.40714,16.73217a14.53813,14.53813 0 0 0 -1.40292,3.38534l3.27885,1.89326a10.92001,10.92001 0 0 0 -0.00619,3.96236a13.45468,13.45468 0 0 0 4.59881,0.4049a16.0463,16.0463 0 0 1 -2.16939,-11.36577l-2.0629,-1.19118a14.53813,14.53813 0 0 0 -2.23625,2.91109z"/>
    <path fill="#42a5f5" data-hover="fond" d="m23.99628,9.46249a14.53813,14.53813 0 0 0 -3.6367,0.47301l0,3.78776a10.92001,10.92001 0 0 0 -3.42991,1.97251a13.45468,13.45468 0 0 0 1.94898,4.18524a16.0463,16.0463 0 0 1 8.75557,-7.55324l0,-2.3836a14.53813,14.53813 0 0 0 -3.63794,-0.48167z"/>
</g>
</svg>
