<svg version="1.1" xmlns="http://www.w3.org/2000/svg" viewBox="0 0 48 48" enable-background="new 0 0 48 48">

	<path d="M42,37c0,2.762-2.238,5-5,5H11c-2.762,0-5-2.238-5-5V11c0-2.762,2.238-5,5-5h26c2.762,0,5,2.238,5,5V37z" fill="#FFF"/>
<g>
	<path fill="#9656B1" d="M22.407,19.587c0.875,0.37,1.922-0.458,2.337,0.882c0.82-0.816,1.686-1.338,2.799-0.806
		c1.088,0.521,1.292,1.52,1.293,2.598c0,1.425,0.031,2.851-0.02,4.275c-0.046,1.266-0.767,2.065-1.846,2.301
		c-0.825,0.182-1.368-0.409-2.04-0.705c0,1.781,0,3.493,0,5.345c0,2.272,0.07,1.272,0.07,6.355c0-4.166,6.246-10.439,7.617-12.588
		c1.124-1.764,0.921-3.329-0.544-4.809c-1.082-1.095-2.273-2.085-3.086-3.432c-1.038-1.723-1.621-3.577-1.676-5.598
		c0-1.556,1.045-5.099,2.742-7.405H17.696c0,1.927,0,8.012,0,8.253c0,1.953,0,3.847,0,5.8c0.391-0.177,0.699-0.345,1.025-0.458
		c1.342-0.461,2.626,0.184,2.76,1.541c0.241,2.435,0.099,4.881,0.068,7.333c-0.881,0.199-1.645,0.16-2.516,0.043
		c0-0.462,0-0.851,0-1.24c0-1.544,0.004-3.087-0.004-4.631c-0.001-0.476,0.034-1.04-0.645-1.057c-0.746-0.02-0.728,0.575-0.74,1.098
		c-0.007,0.357-0.002,0.712-0.002,1.07c0,1.572,0,3.146,0,4.746c-0.873,0.141-1.6,0.143-2.467-0.003c0-4.785,0-9.531,0-14.327
		c0-0.207,0-5.654,0-8.166H11c-2.762,0-5,2.238-5,5v26c0,1.596,0.761,3,1.925,3.916c0-2.968,0-8.355,0-8.584c0-4.16,0-8.347,0-12.65
		c0.917,0.285,1.97-0.638,2.451,0.768c0.783-0.75,1.631-1.295,2.755-0.82c0.971,0.41,1.302,1.282,1.347,2.207
		c0.076,1.581,0.104,3.171,0.002,4.749c-0.131,2.012-1.874,2.806-3.564,1.707c-0.127-0.084-0.239-0.208-0.366-0.082
		c0,1.439,0,2.859,0,4.289c0,0.217,0,6.643,0,9.456C10.7,41.969,10.846,42,11,42h11.407c0-2.749,0-9.402,0-9.668
		C22.407,28.085,22.407,23.906,22.407,19.587z"/>
	<path fill="#F17D30" d="M42,37V11c0-2.762-2.238-5-5-5h-5.453c-0.306,0.325-0.59,0.705-0.863,1.142
		c-2.546,4.066-2.683,8.375-0.119,11.763c0.757,1.002,1.739,1.833,2.617,2.747c0.607,0.63,1.133,1.288,1.325,2.195
		c0.335,1.568-0.002,2.956-0.857,4.283c-1.185,1.836-2.852,3.275-4.171,5.093c-3.075,3.432-3.348,8.128-3.32,8.778H37
		C39.762,42,42,39.762,42,37z"/>
	<path fill="#9656B1" d="M25.599,26.828c0.512,0.006,0.694-0.38,0.729-0.773c0.054-0.624,0.013-1.256,0.013-1.884
		c-0.007,0-0.011,0-0.018,0c0-0.627,0.038-1.258-0.015-1.881c-0.035-0.411-0.257-0.751-0.764-0.721
		c-0.443,0.026-0.603,0.336-0.643,0.711c-0.135,1.253-0.108,2.51-0.019,3.763C24.914,26.454,25.096,26.819,25.599,26.828z"/>
	<path fill="#9656B1" d="M11.269,26.824c0.421-0.029,0.637-0.297,0.65-0.695c0.022-0.627,0.006-1.255,0.006-1.882
		c-0.002,0-0.004,0-0.006,0c0-0.666,0.018-1.333-0.007-2c-0.015-0.398-0.233-0.661-0.663-0.676
		c-0.435-0.015-0.701,0.261-0.709,0.635c-0.034,1.331-0.034,2.663,0.009,3.995C10.559,26.561,10.831,26.854,11.269,26.824z"/>
</g>
</svg>
