<svg version="1.1" xmlns="http://www.w3.org/2000/svg" viewBox="0 0 48 48" enable-background="new 0 0 48 48">
<path fill="#E64A19" d="M42,37c0,2.762-2.238,5-5,5H11c-2.762,0-5-2.238-5-5V11c0-2.762,2.238-5,5-5h26c2.762,0,5,2.238,5,5V37z"/>
<g>
	<circle fill="#FFFFFF" cx="25" cy="24" r="16"/>
	<g>
		<circle fill="#E64A19" cx="25" cy="24" r="6"/>
		<path fill="#E64A19" d="M13,21.5c1.381,0,2.5,1.12,2.5,2.5s-1.119,2.5-2.5,2.5s-2.5-1.12-2.5-2.5S11.619,21.5,13,21.5 M13,20.5
			c-1.93,0-3.5,1.57-3.5,3.5c0,1.93,1.57,3.5,3.5,3.5s3.5-1.57,3.5-3.5C16.5,22.07,14.93,20.5,13,20.5L13,20.5z"/>
		<path fill="#E64A19" d="M31,31.5c1.381,0,2.5,1.12,2.5,2.5s-1.119,2.5-2.5,2.5s-2.5-1.12-2.5-2.5S29.619,31.5,31,31.5 M31,30.5
			c-1.93,0-3.5,1.57-3.5,3.5s1.57,3.5,3.5,3.5s3.5-1.57,3.5-3.5S32.93,30.5,31,30.5L31,30.5z"/>
		<path fill="#E64A19" d="M25,7.417C15.842,7.417,8.417,14.841,8.417,24c0,4.357,1.68,8.322,4.429,11.281
			c3.028,3.262,7.353,5.302,12.154,5.302c9.158,0,16.583-7.424,16.583-16.583S34.158,7.417,25,7.417z M33.5,34
			c0,1.38-1.119,2.5-2.5,2.5s-2.5-1.12-2.5-2.5c0-0.238,0.044-0.463,0.105-0.682C27.486,33.753,26.273,34,25,34
			c-5.064,0-9.24-3.77-9.898-8.654C14.656,26.038,13.884,26.5,13,26.5c-1.381,0-2.5-1.12-2.5-2.5s1.119-2.5,2.5-2.5
			c0.884,0,1.656,0.462,2.102,1.154C15.76,17.77,19.936,14,25,14c1.273,0,2.486,0.247,3.605,0.681
			C28.544,14.463,28.5,14.238,28.5,14c0-1.381,1.119-2.5,2.5-2.5s2.5,1.119,2.5,2.5c0,1.197-0.843,2.195-1.967,2.439
			C33.652,18.273,35,20.977,35,24c0,3.023-1.348,5.727-3.467,7.561C32.657,31.805,33.5,32.803,33.5,34z"/>
		<path fill="#E64A19" d="M31,11.5c1.381,0,2.5,1.119,2.5,2.5c0,1.38-1.119,2.5-2.5,2.5s-2.5-1.12-2.5-2.5
			C28.5,12.619,29.619,11.5,31,11.5 M31,10.5c-1.93,0-3.5,1.57-3.5,3.5s1.57,3.5,3.5,3.5s3.5-1.57,3.5-3.5S32.93,10.5,31,10.5
			L31,10.5z"/>
		<path fill="#E64A19" stroke="#E64A19" stroke-width="2" d="M25,24c-2.583-4.059-5.166-8.118-7.749-12.178"/>
		<path fill="#E64A19" stroke="#E64A19" stroke-width="2" d="M25,24.001c4.811-0.001,9.622-0.001,14.434,0"/>
		<path fill="#E64A19" stroke="#E64A19" stroke-width="2" d="M25,24c-2.665,4.005-5.332,8.01-8,12.014"/>
	</g>
</g>
</svg>
