<svg version="1.1" xmlns="http://www.w3.org/2000/svg" viewBox="0 0 48 48" enable-background="new 0 0 48 48">
	<path fill="#7CB342" d="M42,37c0,2.762-2.238,5-5,5H11c-2.762,0-5-2.238-5-5V11c0-2.762,2.238-5,5-5h26c2.762,0,5,2.238,5,5V37z"/>
	<path fill-rule="evenodd" clip-rule="evenodd" fill="#FEFEFD" d="M12,29.463c-0.033-4.106,1.233-7.039,3.56-9.521
		c1.965-2.098,4.162-3.876,6.981-4.73c3.106-0.941,6.147-0.744,9.111,0.544c0.513,0.223,0.876,0.162,1.24-0.201
		c0.771-0.768,1.403-1.628,1.755-2.674c0.067-0.2,0.146-0.396,0.239-0.583c0.074-0.147,0.201-0.238,0.381-0.174
		c0.66,0.24,0.964,1.188,0.529,1.753c-0.587,0.762-1.202,1.501-1.817,2.239c-0.503,0.603-0.63,1.164-0.322,1.982
		c1.273,3.39,0.431,6.39-1.991,8.968c-2.205,2.349-5.036,3.585-8.109,4.35c-1.37,0.341-2.779,0.362-4.164,0.575
		c-0.819,0.125-1.607,0.366-2.365,0.704c-1.137,0.508-1.991,1.281-2.427,2.48c-0.107,0.296-0.227,0.707-0.577,0.722
		c-0.362,0.015-0.472-0.408-0.613-0.688C12.4,33.192,12.025,31.033,12,29.463z"/>

</svg>
