<?xml version="1.0" encoding="utf-8"?>
<!-- Generator: Adobe Illustrator 28.0.0, SVG Export Plug-In . SVG Version: 6.00 Build 0)  -->
<svg version="1.1" id="Calque_1" xmlns="http://www.w3.org/2000/svg" xmlns:xlink="http://www.w3.org/1999/xlink" x="0px" y="0px"
	 viewBox="0 0 48 48" style="enable-background:new 0 0 48 48;" xml:space="preserve">
<style type="text/css">
	.st0{fill:#FFFFFF;}
	.st1{fill:#00CE3E;}
</style>
<path class="st0" d="M11,42c-2.8,0-5-2.2-5-5V11c0-2.8,2.2-5,5-5h26c2.8,0,5,2.2,5,5v26c0,2.8-2.2,5-5,5"/>
<g>
	<path class="st1" d="M11,6c-2.8,0-5,2.2-5,5v26c0,2.8,2.2,5,5,5h26c2.8,0,5-2.2,5-5V11c0-2.8-2.2-5-5-5H11z"/>
</g>
<path class="st0" d="M34.6,13.4c-5.9-5.9-15.4-5.9-21.2,0s-5.9,15.4,0,21.2s15.4,5.9,21.2,0S40.5,19.2,34.6,13.4
	C34.6,13.4,34.6,13.4,34.6,13.4z M36.2,22.6l-6.5-5.9L23.2,23l-3.5,3.3v-4.9l5.3-5l3.9-3.7C32.9,14.4,35.8,18.2,36.2,22.6z
	 M36.1,26.2c-0.2,1.3-0.7,2.5-1.3,3.7l-3.7-3.4v-4.9L36.1,26.2z M25.9,11.8l-2.8,2.6l-3.4,3.2v-5.2C21.7,11.7,23.8,11.5,25.9,11.8
	L25.9,11.8z M17,26.4l-5.1-4.6c0.2-1.3,0.7-2.6,1.3-3.7l3.8,3.4L17,26.4z M17,13.9v3.9l-2.2-2C15.4,15.1,16.2,14.4,17,13.9L17,13.9z
	 M11.7,25.3l6.6,5.9l10.1-9.5v4.8l-9.3,8.8C15,33.6,12.2,29.7,11.7,25.3L11.7,25.3z M22.2,36.2l6.3-6v5.3C27,36,25.5,36.3,24,36.3
	C23.4,36.3,22.8,36.3,22.2,36.2L22.2,36.2z M31.1,34v-3.9l2.1,1.9C32.7,32.8,31.9,33.5,31.1,34L31.1,34z"/>
</svg>
