<?xml version="1.0" encoding="utf-8"?>
<svg version="1.1" xmlns="http://www.w3.org/2000/svg" xmlns:xlink="http://www.w3.org/1999/xlink" viewBox="0 0 48 48">
<path fill="#3E2723" d="M42,37c0,2.8-2.2,5-5,5H11c-2.8,0-5-2.2-5-5V11c0-2.8,2.2-5,5-5h26c2.8,0,5,2.2,5,5V37z"/>
<g>
	<path fill="#FFFFFF" data-hover="fond" d="M21.3,14.5c0,0.1,0,0.3-0.3,0.4c-0.3-0.2-1-0.3-1.5-0.2c-0.6,0-1.1,0.2-1,0.6c0.1,0.4,0.7,0.6,1.7,0.5
		c2.5-0.2,2.4-1.9,6.1-2.2c2.8-0.3,4.4,0.6,4.6,1.7c0.2,0.8-0.5,1.6-2.6,1.8c-1.8,0.2-2.9-0.3-3-0.8c0-0.3,0.1-0.6,1-0.7
		c0.1,0.4,0.6,0.8,1.8,0.7c0.8-0.1,1.6-0.4,1.5-0.8c-0.1-0.5-1-0.8-2.4-0.7c-2.9,0.3-3.6,1.8-6,2c-1.7,0.2-3.1-0.5-3.3-1.4
		c-0.1-0.4-0.1-1.2,1.8-1.3C20.5,14,21.2,14.1,21.3,14.5L21.3,14.5z"/>
	<path fill="#FFFFFF" data-hover="fond" d="M12.2,24.3c-0.8,1-1.2,2.2-1.1,3.3c0.1,1.2,0.6,2.1,1.5,2.8c0.9,0.7,2,0.9,3.1,0.7c0.4-0.1,0.9-0.3,1.4-0.4
		c-0.9,0-1.7-0.3-2.5-0.9c-0.9-0.6-1.5-1.5-1.6-2.6c-0.2-1,0-2,0.6-2.8c0.6-0.8,1.5-1.2,2.5-1.4c1.1-0.1,2,0.2,3,0.9
		c-0.2-0.3-0.5-0.5-0.8-0.8c-0.9-0.6-2-0.9-3.2-0.6C13.9,22.7,13,23.3,12.2,24.3L12.2,24.3z"/>
	<path fill="#FFFFFF" data-hover="fond" d="M24.8,18.9c-3,0-5.7-0.3-7.7-0.7c-2.1-0.5-3.2-1.1-3.2-1.8c0-0.3,0.1-0.6,0.6-0.9c-1.3,0.5-2,0.9-2,1.6
		c0.1,0.7,1.2,1.5,3.6,2c2.3,0.6,5.1,0.9,8.6,0.9c3.5,0,6.4-0.3,8.6-0.9c2.4-0.6,3.5-1.3,3.5-2c0-0.5-0.5-1-1.5-1.4
		c0.2,0.1,0.4,0.4,0.4,0.6c0,0.7-1.1,1.3-3.3,1.8C30.5,18.6,27.9,18.9,24.8,18.9z"/>
	<path fill="#FFFFFF" data-hover="fond" d="M33.4,20.9c-2.3,0.5-5.1,0.9-8.6,0.9c-3.5,0-6.4-0.4-8.7-0.9c-2-0.5-3.1-1.1-3.5-1.7c0.4,2.5,1.2,4.9,2.4,7.1
		c0.9,1.3,1.7,2.5,2.6,3.7c0.4,0.7,0.6,1.5,0.8,2.2c0.6,0.8,1.4,1.3,2.4,1.6c1.2,0.4,2.5,0.6,3.9,0.6h0.1c1.3,0.1,2.7-0.1,4-0.6
		c0.9-0.3,1.7-0.8,2.3-1.6h0.1c0.1-0.7,0.4-1.5,0.7-2.2c0.9-1.2,1.7-2.4,2.6-3.7c1.2-2.1,2-4.5,2.4-7.1
		C36.4,19.9,35.4,20.5,33.4,20.9z"/>
</g>
</svg>
