<svg version="1.1" xmlns="http://www.w3.org/2000/svg" viewBox="0 0 48 48" enable-background="new 0 0 48 48">
	<path d="M42,37c0,2.762-2.238,5-5,5H11c-2.762,0-5-2.238-5-5V11c0-2.762,2.238-5,5-5h26c2.762,0,5,2.238,5,5V37z" fill="#00BCD4"/>
	<g>
		<path d="M14,25.483V29h-1.993V19h3.76c0.984,0,1.77,0.307,2.355,0.92C18.707,20.533,19,21.33,19,22.311
			s-0.289,1.753-0.868,2.321s-1.381,0.852-2.406,0.852H14z M14.017,23.801h1.75c0.383,0,0.679-0.125,0.889-0.378
			c0.21-0.252,0.314-0.618,0.314-1.099c0-0.499-0.107-0.896-0.321-1.192c-0.214-0.294-0.501-0.444-0.861-0.449h-1.771V23.801z" fill="#FFFFFF" data-hover="fond"/>
		<path d="M31,25.483V29h-1.993V19h3.76c0.984,0,1.77,0.307,2.355,0.92C35.707,20.533,36,21.33,36,22.311
			s-0.289,1.753-0.868,2.321s-1.381,0.852-2.406,0.852H31z M31.017,23.801h1.75c0.383,0,0.679-0.125,0.889-0.378
			c0.21-0.252,0.314-0.618,0.314-1.099c0-0.499-0.107-0.896-0.321-1.192c-0.214-0.294-0.501-0.444-0.861-0.449h-1.771V23.801z" fill="#FFFFFF" data-hover="fond"/>
		<path d="M27,29h-2v-4.279h-3.02V29H20V19h1.98v4H25v-4h2V29z" fill="#FFFFFF" data-hover="fond"/>
	</g>
</svg>
