<svg version="1.1" xmlns="http://www.w3.org/2000/svg" viewBox="0 0 48 48" enable-background="new 0 0 48 48">
	<path fill="#0868AC" d="M42,37c0,2.762-2.238,5-5,5H11c-2.762,0-5-2.238-5-5V11c0-2.762,2.238-5,5-5h26c2.762,0,5,2.238,5,5V37z"/>
<g>
	<path fill="#FFFFFF" d="M13.524,17.637c-2.125,3.17-1.86,7.295-0.237,10.664c0.039,0.08,0.079,0.16,0.119,0.239
		c0.026,0.051,0.049,0.103,0.076,0.152c0.015,0.029,0.032,0.059,0.047,0.086c0.028,0.055,0.056,0.105,0.084,0.158
		c0.051,0.092,0.103,0.184,0.155,0.275c0.029,0.05,0.058,0.101,0.088,0.151c0.059,0.098,0.119,0.194,0.18,0.291
		c0.025,0.042,0.051,0.084,0.077,0.123c0.084,0.131,0.171,0.263,0.26,0.391c0.003,0.004,0.005,0.007,0.008,0.01
		c0.014,0.021,0.029,0.041,0.043,0.062c0.078,0.111,0.157,0.22,0.238,0.328c0.029,0.039,0.06,0.079,0.089,0.118
		c0.072,0.094,0.145,0.187,0.219,0.28c0.028,0.034,0.056,0.068,0.084,0.103c0.1,0.123,0.202,0.244,0.306,0.363
		c0.001,0.001,0.004,0.004,0.006,0.006c0.004,0.006,0.008,0.009,0.012,0.015c0.102,0.114,0.206,0.227,0.311,0.339
		c0.033,0.035,0.066,0.069,0.1,0.104c0.082,0.086,0.164,0.17,0.248,0.253c0.034,0.034,0.068,0.067,0.102,0.1
		c0.111,0.11,0.224,0.217,0.339,0.321c0.002,0.003,0.003,0.004,0.005,0.005c0.02,0.019,0.04,0.034,0.059,0.052
		c0.102,0.093,0.205,0.182,0.309,0.271c0.042,0.035,0.085,0.07,0.128,0.105c0.085,0.071,0.17,0.141,0.257,0.209
		c0.046,0.037,0.092,0.072,0.138,0.108c0.096,0.073,0.191,0.146,0.289,0.216c0.035,0.026,0.069,0.053,0.105,0.077
		c0.01,0.008,0.019,0.014,0.029,0.021c0.092,0.065,0.187,0.13,0.28,0.192c0.041,0.028,0.081,0.058,0.122,0.084
		c0.145,0.095,0.291,0.188,0.439,0.279c0.041,0.023,0.081,0.047,0.122,0.071c0.109,0.065,0.218,0.13,0.33,0.191
		c0.06,0.034,0.122,0.065,0.182,0.098c0.079,0.043,0.156,0.087,0.236,0.128c0.019,0.009,0.037,0.018,0.055,0.026
		c0.032,0.017,0.064,0.032,0.097,0.049c0.124,0.062,0.248,0.121,0.374,0.18c0.027,0.012,0.053,0.024,0.079,0.036
		c0.144,0.066,0.289,0.129,0.436,0.189c0.035,0.015,0.07,0.028,0.106,0.042c0.136,0.055,0.273,0.108,0.412,0.159
		c0.017,0.007,0.034,0.013,0.052,0.019c0.151,0.055,0.305,0.105,0.458,0.155c0.037,0.012,0.074,0.023,0.111,0.035
		c0.157,0.048,0.312,0.106,0.474,0.138c10.275,1.945,13.261-6.41,13.261-6.41c-2.507,3.391-6.957,4.284-11.173,3.29
		c-0.16-0.038-0.315-0.09-0.471-0.138c-0.04-0.012-0.079-0.024-0.117-0.037c-0.152-0.048-0.303-0.1-0.453-0.153
		c-0.021-0.008-0.042-0.015-0.062-0.023c-0.134-0.049-0.267-0.1-0.399-0.153c-0.037-0.016-0.075-0.03-0.112-0.046
		c-0.145-0.059-0.29-0.122-0.432-0.186c-0.029-0.014-0.057-0.027-0.086-0.04c-0.123-0.058-0.244-0.115-0.364-0.176
		c-0.035-0.018-0.069-0.034-0.105-0.052c-0.095-0.048-0.188-0.1-0.282-0.149c-0.062-0.033-0.126-0.065-0.188-0.103
		c-0.114-0.062-0.226-0.129-0.337-0.196c-0.038-0.021-0.076-0.042-0.114-0.065c-0.148-0.091-0.294-0.185-0.439-0.278
		c-0.04-0.026-0.079-0.056-0.119-0.082c-0.105-0.07-0.209-0.143-0.312-0.217c-0.035-0.023-0.067-0.05-0.101-0.073
		c-0.1-0.073-0.198-0.146-0.295-0.222c-0.044-0.034-0.088-0.068-0.131-0.103c-0.09-0.071-0.179-0.144-0.267-0.217
		c-0.04-0.033-0.08-0.065-0.119-0.099c-0.112-0.096-0.223-0.192-0.332-0.291c-0.012-0.01-0.024-0.021-0.037-0.032
		c-0.118-0.106-0.234-0.218-0.349-0.329c-0.033-0.032-0.065-0.064-0.098-0.099c-0.085-0.083-0.169-0.168-0.251-0.255
		c-0.033-0.033-0.066-0.067-0.099-0.103c-0.104-0.111-0.207-0.223-0.308-0.337c-0.005-0.006-0.01-0.012-0.015-0.018
		c-0.106-0.12-0.21-0.243-0.312-0.369c-0.028-0.033-0.055-0.067-0.082-0.1c-0.076-0.095-0.152-0.191-0.225-0.288
		c-0.027-0.035-0.055-0.071-0.083-0.107c-0.088-0.119-0.175-0.237-0.259-0.358c-2.341-3.314-3.182-7.886-1.311-11.641" data-hover="fond" />
	<path fill="#FFFFFF" d="M20.12,14.966c-1.537,2.295-1.453,5.369-0.255,7.796c0.201,0.407,0.427,0.802,0.68,1.178
		c0.23,0.343,0.486,0.75,0.791,1.025c0.111,0.127,0.227,0.25,0.345,0.371c0.03,0.032,0.06,0.062,0.091,0.094
		c0.115,0.116,0.231,0.229,0.352,0.34c0.005,0.003,0.009,0.009,0.015,0.013c0.001,0.002,0.002,0.002,0.003,0.004
		c0.134,0.121,0.271,0.238,0.412,0.353c0.031,0.025,0.062,0.051,0.093,0.076c0.141,0.111,0.283,0.222,0.43,0.326
		c0.004,0.004,0.008,0.007,0.013,0.01c0.064,0.047,0.13,0.09,0.196,0.135c0.031,0.021,0.062,0.044,0.093,0.064
		c0.104,0.068,0.211,0.137,0.319,0.202c0.016,0.01,0.03,0.019,0.045,0.027c0.093,0.056,0.188,0.11,0.282,0.163
		c0.033,0.02,0.066,0.036,0.1,0.054c0.066,0.036,0.13,0.072,0.198,0.107c0.009,0.004,0.021,0.009,0.029,0.013
		c0.135,0.07,0.272,0.137,0.412,0.199c0.029,0.015,0.06,0.026,0.091,0.039c0.111,0.049,0.224,0.098,0.337,0.143
		c0.048,0.019,0.097,0.037,0.145,0.055c0.103,0.039,0.206,0.076,0.31,0.111c0.047,0.016,0.094,0.032,0.141,0.047
		c0.147,0.048,0.293,0.108,0.448,0.135C34.167,29.408,36,23.068,36,23.068c-1.652,2.469-4.85,3.646-8.262,2.727
		c-0.15-0.041-0.3-0.087-0.449-0.135c-0.046-0.015-0.09-0.03-0.135-0.046c-0.105-0.035-0.211-0.073-0.314-0.112
		c-0.048-0.018-0.096-0.036-0.142-0.055c-0.114-0.045-0.227-0.092-0.338-0.142c-0.031-0.014-0.062-0.025-0.092-0.04
		c-0.14-0.063-0.277-0.13-0.414-0.199c-0.07-0.036-0.139-0.073-0.208-0.11c-0.039-0.021-0.079-0.042-0.119-0.063
		c-0.089-0.05-0.177-0.102-0.263-0.154c-0.021-0.012-0.042-0.023-0.063-0.037c-0.106-0.064-0.212-0.132-0.317-0.202
		c-0.032-0.021-0.063-0.044-0.097-0.066c-0.068-0.046-0.138-0.094-0.205-0.142c-0.146-0.104-0.289-0.214-0.429-0.326
		c-0.032-0.026-0.064-0.052-0.096-0.079c-1.494-1.224-2.678-2.896-3.24-4.793c-0.59-1.967-0.463-4.176,0.559-5.968" data-hover="fond" />
	<path fill="#FFFFFF" d="M25.667,12.971c-0.905,1.384-0.994,3.102-0.366,4.63c0.664,1.623,2.021,2.896,3.606,3.499
		c0.065,0.025,0.131,0.048,0.197,0.071c0.029,0.009,0.058,0.019,0.087,0.028c0.094,0.03,0.186,0.066,0.282,0.084
		c4.382,0.879,5.569-2.333,5.886-2.806c-1.041,1.556-2.79,1.929-4.937,1.388c-0.17-0.042-0.355-0.106-0.519-0.166
		c-0.21-0.078-0.416-0.167-0.617-0.266c-0.381-0.19-0.745-0.421-1.081-0.685c-1.921-1.512-3.113-4.398-1.86-6.749" data-hover="fond" />
</g>
</svg>
