<?xml version="1.0" encoding="utf-8"?>
<svg version="1.1" xmlns="http://www.w3.org/2000/svg" xmlns:xlink="http://www.w3.org/1999/xlink" viewBox="0 0 48 48">
    <g>
        <path fill="#455A64" d="M42,37c0,2.8-2.2,5-5,5H11c-2.8,0-5-2.2-5-5V11c0-2.8,2.2-5,5-5h26c2.8,0,5,2.2,5,5V37z"/>
        <path fill="#FFFFFF" data-hover="fond" d="M33.8,9.9c-2.1,0.1-4,1.2-5.4,2.8c-1.5,1.8-2.3,3.3-3.1,5.4c-1.3-1.1-2.3-2.4-4.4-3c-1.6-0.5-3.2-0.3-4.8,0.8
        	c-0.7,0.5-1.3,1.4-1.5,2.2c-0.1,0.4-0.2,0.8-0.2,1.2c0,1.8,2.5,5.1,2.5,5.1c0.3,0.3,0.7,1,0.4,2c-0.3,1.1-1.7,1.8-3,1.4
        	c-0.6-0.2-1.5-0.6-1.3-1.3c0.1-0.3,0.3-0.5,0.4-0.7c0.1-0.2,0.1-0.2,0.1-0.3c0.3-0.9-0.1-2-0.9-2.3c-0.8-0.2-1.8,0.1-2.1,1.1
        	c-0.4,1.2,0.3,3.3,3.3,4.3c3.6,1.1,6.6-0.8,7-3.3c0-0.2,0.1-0.5,0.1-0.7c0-1.9-3.1-5-3.1-6.6c0-0.4,0.1-0.8,0.4-1.2
        	c0.6-0.7,1.2-0.8,2.5-0.5c1.9,0.5,2.8,1.8,4.2,2.9c-0.6,1.9-1.1,4.3-1.5,6l-0.2,1.3c-1,5.3-1.8,8-3.8,9.7c-0.7,0.5-1.6,0.7-2.4,0.7
        	c-0.5,0-0.6-0.3-0.6-0.4c0-0.3,0.3-0.5,0.4-0.6c0.3-0.1,0.7-0.4,0.7-1.2c0-0.9-0.7-1.8-2-1.8c-0.8,0-2,0.9-2,2.4c0,1.5,2,2.7,4,2.7
        	c1.1,0,3.6-0.5,6.1-3.4c2.9-3.3,3.7-7.1,4.3-9.8l0.7-3.8c0.4,0,0.8,0.1,1.2,0.1c3.6,0.1,5.7-1.8,5.7-3.1c0-1.1-0.8-1.9-1.6-1.9
        	c-0.5,0-1.4,0.5-1.4,1.4c0,0.8,1.1,1.3,0.1,1.9c-0.7,0.5-2,0.8-3.8,0.5l0.3-1.4c0.7-3.4,1.4-7.4,4.5-7.5c0.2,0,1.1,0,1.1,0.6
        	c0,0.2-0.4,0.7-0.4,1.4c0,0.9,0.7,1.4,1.7,1.4c1.3,0,1.6-1.3,1.6-1.9C37.5,10.8,35.9,9.9,33.8,9.9z"/>
    </g>
</svg>
