<?xml version="1.0" encoding="utf-8"?>
<svg version="1.1" xmlns="http://www.w3.org/2000/svg" x="0px" y="0px" viewBox="0 0 48 48">
<path fill="#36383B" d="M42,37c0,2.8-2.2,5-5,5H11c-2.8,0-5-2.2-5-5V11c0-2.8,2.2-5,5-5h26c2.8,0,5,2.2,5,5V37z"/>
<path fill="#EFDAB9" data-hover="fond" d="M17.5,37.2c-0.7,0-1.2-0.2-1.5-0.5c-1-0.7-1.6-1.9-1.6-3.5C14.3,30,16,25.3,19,20.8c3.7-5.7,8.5-9.7,11.6-9.9
	c0.7,0,1.3,0.1,1.8,0.4c1.3,0.8,2,2.8,0.6,5.5c-0.2,0.3-0.6,0.5-1,0.3c-0.3-0.2-0.5-0.6-0.3-1c0.9-1.6,0.8-3-0.1-3.6
	c-0.2-0.1-0.5-0.2-0.9-0.2c-2.3,0.1-6.6,3.3-10.5,9.3c-2.8,4.3-4.5,8.7-4.4,11.7c0,1.1,0.3,1.9,1,2.3l0.1,0.1
	c0.3,0.3,1.5,0.3,3.3-1.1c0.3-0.3,0.8-0.2,1,0.1c0.3,0.3,0.2,0.8-0.1,1C19.5,36.8,18.4,37.2,17.5,37.2z"/>
<path fill="#EFDAB9" data-hover="fond" d="M35.1,28.8c-0.3,0-0.6-0.1-0.6-0.4c-0.1-0.3,0.1-0.8,0.4-0.9c1.7-0.7,3-1.8,3-2.8c0.1-2-5-4.4-13.7-4.8
	c-0.8-0.1-1.5-0.1-2.2-0.1c-6.8,0-11.7,1.5-11.7,3.5c-0.1,0.8,1.4,2.1,3,2.8c0.3,0.1,0.6,0.6,0.4,0.9c-0.1,0.3-0.6,0.6-0.9,0.4
	c-2-0.8-4-2.4-3.9-4.1c0.1-3,5-4.8,13.1-4.8c0.7,0,1.5,0,2.3,0.1c7.6,0.4,15.2,2.5,15,6.3c-0.1,1.6-1.6,3.1-3.9,4
	C35.2,28.8,35.1,28.8,35.1,28.8z"/>
<path fill="#EFDAB9" data-hover="fond" d="M29.6,37.8c-0.4,0-0.9-0.1-1.4-0.3c-3.1-1-7-5.5-9.5-10.8c-1.7-3.6-2.9-8.2-3-11.9c-0.1-2.3,0.5-3.7,1.7-4.4
	c0.3-0.1,0.7-0.3,1-0.3c1.1-0.1,2.4,0.6,4,2.3c0.3,0.3,0.3,0.7,0,1c-0.3,0.3-0.7,0.3-1,0c-1.7-1.7-2.6-1.9-2.9-1.9
	c-0.2,0-0.3,0.1-0.6,0.1c-0.6,0.3-1,1.4-0.9,3.1c0.1,2.8,0.9,7.5,2.8,11.3c2.8,5.9,6.5,9.4,8.8,10.2c0.6,0.2,1.2,0.2,1.6,0.1
	c1.3-1.2,0.8-6.8-2-13.4c-0.1-0.3,0-0.8,0.3-0.9c0.3-0.1,0.8,0,0.9,0.3c2.6,6.1,4,13.3,1.5,15.1h-0.1C30.5,37.7,30.1,37.8,29.6,37.8
	z"/>
<path fill="#EFDAB9" data-hover="fond" d="M26.1,24c0,1.2-0.9,2.1-2.1,2.1c-1.2,0-2.1-0.9-2.1-2.1s0.9-2.1,2.1-2.1C25.2,21.9,26.1,22.8,26.1,24z"/>
</svg>
