<svg version="1.1" xmlns="http://www.w3.org/2000/svg" viewBox="0 0 48 48" enable-background="new 0 0 48 48">
<path fill="#9748A2" d="M42,37c0,2.762-2.238,5-5,5H11c-2.762,0-5-2.238-5-5V11c0-2.762,2.238-5,5-5h26c2.762,0,5,2.238,5,5V37z"/>
<g>
	<path fill="#FFFFFF" d="M21.042,18.955h2.01v6.891c0,0.967-0.27,1.742-0.807,2.324c-0.537,0.584-1.23,0.875-2.078,0.875
		c-0.912,0-1.62-0.271-2.125-0.812c-0.507-0.541-0.759-1.297-0.759-2.264h2.019c0,0.938,0.288,1.408,0.866,1.408
		c0.584,0,0.875-0.542,0.875-1.627L21.042,18.955L21.042,18.955z"/>
	<path fill="#FFFFFF" d="M28.686,26.364c0-0.404-0.104-0.712-0.311-0.918c-0.209-0.209-0.586-0.424-1.133-0.646
		c-0.998-0.379-1.717-0.821-2.152-1.33c-0.439-0.508-0.656-1.108-0.656-1.801c0-0.84,0.296-1.512,0.892-2.021
		c0.594-0.509,1.35-0.763,2.266-0.763c0.611,0,1.156,0.129,1.635,0.386c0.479,0.258,0.848,0.621,1.104,1.091
		c0.258,0.47,0.387,1.003,0.387,1.599h-2.004c0-0.465-0.1-0.818-0.297-1.062c-0.199-0.242-0.484-0.365-0.857-0.365
		c-0.352,0-0.625,0.104-0.82,0.312c-0.195,0.208-0.295,0.487-0.295,0.838c0,0.272,0.109,0.521,0.328,0.742
		c0.221,0.221,0.605,0.448,1.162,0.687c0.973,0.352,1.676,0.781,2.115,1.293c0.441,0.51,0.66,1.159,0.66,1.947
		c0,0.866-0.275,1.543-0.826,2.03c-0.553,0.487-1.303,0.731-2.25,0.731c-0.643,0-1.229-0.133-1.756-0.396
		c-0.529-0.264-0.943-0.643-1.242-1.135c-0.297-0.492-0.447-1.073-0.447-1.744h2.017c0,0.574,0.111,0.992,0.336,1.252
		c0.223,0.26,0.588,0.39,1.094,0.39C28.334,27.479,28.686,27.107,28.686,26.364z"/>
</g>
</svg>
