<svg version="1.1" xmlns="http://www.w3.org/2000/svg" viewBox="0 0 48 48" enable-background="new 0 0 48 48">
<path fill="#2594EF" d="M42,37c0,2.762-2.238,5-5,5H11c-2.762,0-5-2.238-5-5V11c0-2.762,2.238-5,5-5h26c2.762,0,5,2.238,5,5V37z"/>
<g>
	<rect x="22.857" y="12" fill="#FFFFFF" width="2.286" height="4.571" data-hover="fond"/>
	<g>
		<rect x="15.429" y="26.285" fill="#FFFFFF" width="17.143" height="1.143" data-hover="fond"/>

			<rect x="30.367" y="33.579" transform="matrix(-0.9112 0.412 -0.412 -0.9112 73.4335 53.6131)" fill="#FFFFFF" width="1.142" height="2.285" data-hover="fond"/>

			<rect x="16.494" y="33.58" transform="matrix(0.9113 0.4118 -0.4118 0.9113 15.8148 -3.947)" fill="#FFFFFF" width="1.143" height="2.286" data-hover="fond"/>
	</g>
	<g>
		<path fill="#FFFFFF" d="M25.461,16.571c-0.524,0.56-1.234,0.943-2.032,1.052l6.595,16.466l1.043-0.475l0.145-2.46L25.461,16.571z" data-hover="fond"
			/>
		<path fill="#FFFFFF" d="M22.539,16.662c0.525,0.561,1.235,0.943,2.033,1.052l-6.589,16.375l-1.043-0.475l-0.145-2.46
			L22.539,16.662z" data-hover="fond"/>
	</g>
	<path fill="#FFFFFF" d="M24,14.286c-1.578,0-2.857,1.28-2.857,2.857C21.143,18.721,22.422,20,24,20
		c1.578,0,2.857-1.279,2.857-2.857C26.857,15.565,25.578,14.286,24,14.286z" data-hover="fond"/>
	<path fill="#2594EF" d="M24,16.571c-0.315,0-0.571,0.256-0.571,0.571c0,0.316,0.256,0.572,0.571,0.572s0.571-0.255,0.571-0.572
		C24.571,16.828,24.315,16.571,24,16.571z"/>
	<path fill="#FFFFFF" d="M25.143,28.57c0,0.316-0.256,0.572-0.571,0.572h-1.143c-0.316,0-0.572-0.256-0.572-0.572v-3.428
		c0-0.316,0.255-0.571,0.572-0.571h1.143c0.315,0,0.571,0.255,0.571,0.571V28.57z" data-hover="fond"/>
</g>
</svg>
