<?xml version="1.0" encoding="utf-8"?>
<svg version="1.1" xmlns="http://www.w3.org/2000/svg" xmlns:xlink="http://www.w3.org/1999/xlink" viewBox="0 0 48 48">
<path fill="#2F3241" d="M42,37c0,2.8-2.2,5-5,5H11c-2.8,0-5-2.2-5-5V11c0-2.8,2.2-5,5-5h26c2.8,0,5,2.2,5,5V37z"/>
<g>
    <path fill="#9FEAF9" data-hover="fond" d="M30.9,34.5c-3.1,0-7-1.1-10.7-3.3c-2.5-1.5-4.7-3.1-6.1-4.8l0.8-0.7c1.4,1.6,3.4,3.2,5.9,4.6
		c5.1,3,10.7,4,13.6,2.5c-0.1-0.3-0.2-0.6-0.2-0.9c0-1.1,0.9-2,2-2s2,0.9,2,2s-0.9,2-2,2c-0.4,0-0.8-0.1-1.1-0.3
		C34,34.2,32.5,34.5,30.9,34.5z M36.1,30.9c-0.5,0-1,0.5-1,1s0.5,1,1,1s1-0.5,1-1S36.6,30.9,36.1,30.9z M12.1,23.6
		c-1.3-2.3-1.6-4.5-0.6-6.1c1.2-2.1,4.4-3,8.4-2.2l-0.2,1c-3.6-0.7-6.4,0-7.4,1.8c-0.8,1.3-0.6,3.1,0.6,5.1L12.1,23.6z"/>
	<path fill="#9FEAF9" data-hover="fond" d="M11.9,33.9c-1.1,0-2-0.9-2-2c0-0.8,0.4-1.4,1.1-1.8c-0.3-3.7,3.5-8.5,9.4-11.9c2.3-1.4,4.8-2.3,7.2-2.9l0.2,1
		c-2.4,0.5-4.7,1.4-7,2.7c-5.4,3.1-9,7.5-8.9,10.8c1.1,0,1.9,0.9,1.9,2C13.9,33,13,33.9,11.9,33.9z M11.9,30.9c-0.6,0-1,0.5-1,1
		c0,0.5,0.5,1,1,1c0.6,0,1-0.5,1-1C12.9,31.4,12.4,30.9,11.9,30.9z M34.3,25.9l-0.8-0.7c2.4-2.7,3.2-5.5,2.2-7.2
		c-0.8-1.3-2.4-2-4.7-2v-1c2.7,0,4.6,0.8,5.5,2.4C37.8,19.7,37,22.8,34.3,25.9z"/>
	<path fill="#9FEAF9" data-hover="fond" d="M24,39.1c-2.4,0-4.7-2.3-6.2-6.1l0.9-0.3c1.3,3.4,3.2,5.5,5.2,5.5c1.5,0,2.9-1.1,4.1-3l0.9,0.5
		C27.6,37.9,25.8,39.1,24,39.1z M30.5,32.3l-0.9-0.3c0.7-2.1,1.1-4.6,1.1-7.2c0-6-2-11.3-4.8-12.9c-0.3,0.7-1,1.1-1.8,1.1
		c-1.1,0-2-0.9-2-2s0.9-2,2-2c1,0,1.9,0.8,2,1.8c3.3,1.6,5.6,7.3,5.6,14C31.6,27.4,31.2,30.1,30.5,32.3z M24,9.9c-0.5,0-1,0.5-1,1
		s0.5,1,1,1c0.6,0,1-0.5,1-1C25,10.4,24.5,9.9,24,9.9z"/>
	<path fill="#9FEAF9" data-hover="fond" d="M24.3,26.1c-0.8,0.2-1.5-0.3-1.7-1.1c-0.2-0.8,0.3-1.5,1.1-1.7c0.8-0.2,1.5,0.3,1.7,1.1S25.1,26,24.3,26.1z"/>
</g>
</svg>
