<?xml version="1.0" encoding="utf-8"?>
<!-- Generator: Adobe Illustrator 16.0.0, SVG Export Plug-In . SVG Version: 6.00 Build 0)  -->
<!DOCTYPE svg PUBLIC "-//W3C//DTD SVG 1.1//EN" "http://www.w3.org/Graphics/SVG/1.1/DTD/svg11.dtd">
<svg version="1.1" id="Icon" xmlns="http://www.w3.org/2000/svg" xmlns:xlink="http://www.w3.org/1999/xlink" x="0px" y="0px"
	 width="512px" height="512px" viewBox="0 0 512 512" enable-background="new 0 0 512 512" xml:space="preserve">
<path fill="#55ACEE" d="M418.41,155.242c-11.947,5.302-24.779,8.886-38.271,10.496c13.77-8.245,24.32-21.312,29.301-36.863
	c-12.863,7.637-27.125,13.184-42.324,16.17c-12.15-12.949-29.473-21.034-48.641-21.034c-36.789,0-66.625,29.824-66.625,66.635
	c0,5.216,0.587,10.304,1.718,15.189c-55.381-2.784-104.48-29.312-137.344-69.622c-5.738,9.846-9.024,21.291-9.024,33.504
	c0,23.115,11.766,43.51,29.643,55.456c-10.922-0.341-21.194-3.338-30.187-8.33c0,0.277,0,0.555,0,0.843
	c0,32.288,22.965,59.21,53.451,65.333c-5.6,1.535-11.478,2.336-17.557,2.336c-4.299,0-8.47-0.405-12.544-1.174
	c8.48,26.465,33.088,45.729,62.24,46.272c-22.805,17.878-51.542,28.533-82.752,28.533c-5.376,0-10.688-0.319-15.904-0.949
	c29.493,18.912,64.512,29.952,102.144,29.952c122.56,0,189.589-101.536,189.589-189.589c0-2.892-0.064-5.761-0.203-8.619
	C398.176,180.341,409.482,168.608,418.41,155.242z"/>
</svg>
