<?xml version="1.0" encoding="utf-8"?>
<!-- Generator: Adobe Illustrator 16.0.0, SVG Export Plug-In . SVG Version: 6.00 Build 0)  -->
<!DOCTYPE svg PUBLIC "-//W3C//DTD SVG 1.1//EN" "http://www.w3.org/Graphics/SVG/1.1/DTD/svg11.dtd">
<svg version="1.1" id="Icon" xmlns="http://www.w3.org/2000/svg" xmlns:xlink="http://www.w3.org/1999/xlink" x="0px" y="0px"
	 width="512px" height="512px" viewBox="0 0 512 512" enable-background="new 0 0 512 512" xml:space="preserve">
<path fill="#F07355" d="M241.365,53.589c0,0,46.57,30.891,54.613,115.776c0,0,15.732,203.947-89.792,243.937
	c0,0,9.44,1.761,20.085,1.248c0,0,130.475-82.294,70.625-242.059C296.896,172.501,278.998,116.736,241.365,53.589z"/>
<path fill="#F07355" d="M309.482,192.885c0,0-24.31-37.611,6.539-68.64c0,0,10.814-11.904,41.643-19.744
	c0,0,30.858-6.571,47.52-41.995c0,0,34.562,48.245,13.291,111.776c0,0-10.496,28.597-32.459,41.643
	c-16.544,9.856-41.6,12.949-67.829-12.736c0,0,79.297-43.445,82.251-80.224C400.438,122.987,376.085,177.728,309.482,192.885z"/>
<path d="M329.686,307.02c0,19.541-4.672,37.771-13.994,54.666c-9.322,16.896-21.94,29.963-37.813,39.146
	c-15.894,9.184-33.344,13.803-52.33,13.803c-18.998,0-36.438-4.607-52.32-13.803c-15.883-9.184-28.491-22.25-37.824-39.146
	c-9.333-16.906-14.005-35.125-14.005-54.666c0-30.336,10.24-56.192,30.699-77.558c20.469-21.365,44.949-32.053,73.44-32.053
	c13.557,0,26.208,2.453,37.983,7.349c1.162-12.374,5.524-23.893,10.336-33.323c-14.815-5.376-30.87-8.096-48.191-8.096
	c-41.184,0-75.275,15.168-102.229,45.493c-24.522,27.499-36.789,59.988-36.789,97.43c0,37.781,12.949,70.795,38.869,99.04
	c25.909,28.234,59.296,42.378,100.16,42.378c40.704,0,74.016-14.122,99.915-42.378c25.92-28.257,38.88-61.259,38.88-99.04
	c0-20.225-3.562-38.955-10.667-56.246c-11.894,7.328-23.211,11.146-32.564,13.109C326.858,276.521,329.686,291.146,329.686,307.02z"
	/>
</svg>
