<?xml version="1.0" encoding="utf-8"?>
<!-- Generator: Adobe Illustrator 16.0.0, SVG Export Plug-In . SVG Version: 6.00 Build 0)  -->
<!DOCTYPE svg PUBLIC "-//W3C//DTD SVG 1.1//EN" "http://www.w3.org/Graphics/SVG/1.1/DTD/svg11.dtd">
<svg version="1.1" id="Icon" xmlns="http://www.w3.org/2000/svg" xmlns:xlink="http://www.w3.org/1999/xlink" x="0px" y="0px"
	 width="512px" height="512px" viewBox="0 0 512 512" enable-background="new 0 0 512 512" xml:space="preserve">
<g>
	<g>
		<path fill="#0077B5" d="M167.797,124.085c-17.152,0-28.352,11.552-28,26.955c-0.352,14.699,10.859,26.603,27.659,26.603
			c17.504,0,28.704-11.904,28.704-26.603C195.808,135.637,184.949,124.085,167.797,124.085z M141.195,379.274H194.4V197.418h-53.205
			V379.274z M338.262,199.979c-17.014,0-34.368-3.509-52.864,25.173h-1.056l-0.929-27.723h-47.114
			c0.693,15.051,0.789,37.525,0.789,58.88v122.976h53.205V274.176c0-4.906,0.693-9.803,2.091-13.312
			c3.499-9.803,12.257-19.958,26.955-19.958c19.253,0,26.954,15.051,26.954,37.109v101.27h53.206V271.35
			C399.52,220.938,373.259,199.979,338.262,199.979z"/>
	</g>
</g>
</svg>
